<?xml version="1.0" encoding="UTF-8" standalone="no"?>
<!-- Created with Inkscape (http://www.inkscape.org/) -->

<svg
   width="364.853"
   height="890.552"
   id="svg9845"
   version="1.1"
   xmlns:xlink="http://www.w3.org/1999/xlink"
   xmlns="http://www.w3.org/2000/svg"
   xmlns:svg="http://www.w3.org/2000/svg"
   xmlns:rdf="http://www.w3.org/1999/02/22-rdf-syntax-ns#"
   xmlns:cc="http://creativecommons.org/ns#"
   xmlns:dc="http://purl.org/dc/elements/1.1/">
  <defs
     id="defs9847">
    <linearGradient
       id="linearGradient23124-6">
      <stop
         id="stop23126-0"
         offset="0"
         style="stop-color:#cc992d;stop-opacity:1;" />
      <stop
         id="stop23128-3"
         offset="0.14285725"
         style="stop-color:#e1a832;stop-opacity:1;" />
      <stop
         style="stop-color:#e5cf5c;stop-opacity:1;"
         offset="0.32142863"
         id="stop23130-8" />
      <stop
         id="stop23132-0"
         offset="0.5"
         style="stop-color:#e5c547;stop-opacity:1;" />
      <stop
         style="stop-color:#ffffa3;stop-opacity:1;"
         offset="0.75"
         id="stop23134-1" />
      <stop
         id="stop23136-2"
         offset="0.875"
         style="stop-color:#ffd94d;stop-opacity:1;" />
      <stop
         style="stop-color:#ffdb4e;stop-opacity:1;"
         offset="1"
         id="stop23138-5" />
    </linearGradient>
    <linearGradient
       id="linearGradient9216">
      <stop
         id="stop9218"
         offset="0"
         style="stop-color:#cc992d;stop-opacity:1;" />
      <stop
         id="stop9220"
         offset="0.14285725"
         style="stop-color:#e1a832;stop-opacity:1;" />
      <stop
         style="stop-color:#e5cf5c;stop-opacity:1;"
         offset="0.32142863"
         id="stop9222" />
      <stop
         id="stop9224"
         offset="0.5"
         style="stop-color:#e5c547;stop-opacity:1;" />
      <stop
         style="stop-color:#ffffa3;stop-opacity:1;"
         offset="0.75"
         id="stop9226" />
      <stop
         id="stop9228"
         offset="0.875"
         style="stop-color:#ffd94d;stop-opacity:1;" />
      <stop
         style="stop-color:#ffdb4e;stop-opacity:1;"
         offset="1"
         id="stop9230" />
    </linearGradient>
    <linearGradient
       id="linearGradient4070-6-1-3">
      <stop
         id="stop4072-2-3-5"
         offset="0"
         style="stop-color:#a3a3a3;stop-opacity:1;" />
      <stop
         id="stop4074-3-2-9"
         offset="0.14285725"
         style="stop-color:#b0b0b0;stop-opacity:1;" />
      <stop
         style="stop-color:#d1d1d1;stop-opacity:1;"
         offset="0.32142863"
         id="stop4076-8-1-9" />
      <stop
         id="stop4078-2-6-8"
         offset="0.5"
         style="stop-color:#bdbdbd;stop-opacity:1;" />
      <stop
         style="stop-color:#e5e5e5;stop-opacity:1;"
         offset="0.75"
         id="stop4080-6-3-1" />
      <stop
         id="stop4082-2-8-8"
         offset="0.875"
         style="stop-color:#cccccc;stop-opacity:1;" />
      <stop
         style="stop-color:#cccccc;stop-opacity:1;"
         offset="1"
         id="stop4084-7-3-2" />
    </linearGradient>
    <linearGradient
       id="linearGradient7293-4-5-5-3-6">
      <stop
         id="stop5392-3-6-1-0"
         offset="0"
         style="stop-color:#cc992d;stop-opacity:1;" />
      <stop
         id="stop7305-6-3-4-7"
         offset="0.14285725"
         style="stop-color:#e1a832;stop-opacity:1;" />
      <stop
         style="stop-color:#e5cf5c;stop-opacity:1;"
         offset="0.32142863"
         id="stop8194-1-0-7-8-1" />
      <stop
         id="stop7301-0-2-2-9-7"
         offset="0.5"
         style="stop-color:#e5c547;stop-opacity:1;" />
      <stop
         style="stop-color:#ffffa3;stop-opacity:1;"
         offset="0.75"
         id="stop7303-5-9-4-8-7" />
      <stop
         id="stop7526-6-9-6-4-7"
         offset="0.875"
         style="stop-color:#ffd94d;stop-opacity:1;" />
      <stop
         style="stop-color:#ffdb4e;stop-opacity:1;"
         offset="1"
         id="stop7297-8-3-4-7" />
    </linearGradient>
    <linearGradient
       id="linearGradient6945">
      <stop
         id="stop6947"
         offset="0"
         style="stop-color:#cc992d;stop-opacity:1;" />
      <stop
         id="stop6949"
         offset="0.14285725"
         style="stop-color:#e1a832;stop-opacity:1;" />
      <stop
         style="stop-color:#e5cf5c;stop-opacity:1;"
         offset="0.32142863"
         id="stop6951" />
      <stop
         id="stop6953"
         offset="0.5"
         style="stop-color:#e5c547;stop-opacity:1;" />
      <stop
         style="stop-color:#ffffa3;stop-opacity:1;"
         offset="0.75"
         id="stop6955" />
      <stop
         id="stop6957"
         offset="0.875"
         style="stop-color:#ffd94d;stop-opacity:1;" />
      <stop
         style="stop-color:#ffdb4e;stop-opacity:1;"
         offset="1"
         id="stop6959" />
    </linearGradient>
    <linearGradient
       id="linearGradient9390">
      <stop
         id="stop9392"
         offset="0"
         style="stop-color:#cc992d;stop-opacity:1;" />
      <stop
         id="stop9394"
         offset="0.14285725"
         style="stop-color:#e1a832;stop-opacity:1;" />
      <stop
         style="stop-color:#e5cf5c;stop-opacity:1;"
         offset="0.32142863"
         id="stop9396" />
      <stop
         id="stop9398"
         offset="0.5"
         style="stop-color:#e5c547;stop-opacity:1;" />
      <stop
         style="stop-color:#ffffa3;stop-opacity:1;"
         offset="0.75"
         id="stop9400" />
      <stop
         id="stop9402"
         offset="0.875"
         style="stop-color:#ffd94d;stop-opacity:1;" />
      <stop
         style="stop-color:#ffdb4e;stop-opacity:1;"
         offset="1"
         id="stop9404" />
    </linearGradient>
    <linearGradient
       gradientUnits="userSpaceOnUse"
       y2="672.822"
       x2="449.808"
       y1="677.822"
       x1="155.102"
       id="linearGradient8180"
       xlink:href="#linearGradient4070-9-0-5" />
    <linearGradient
       gradientTransform="translate(458.427,563.081)"
       xlink:href="#linearGradient4053-4-0"
       id="linearGradient5694"
       x1="294.712"
       y1="148.257"
       x2="305.824"
       y2="148.257"
       gradientUnits="userSpaceOnUse" />
    <linearGradient
       id="linearGradient4053-4-0">
      <stop
         id="stop4055-9-6"
         offset="0"
         style="stop-color:#cc992d;stop-opacity:1;" />
      <stop
         id="stop4057-8-5"
         offset="0.14285725"
         style="stop-color:#e1a832;stop-opacity:1;" />
      <stop
         style="stop-color:#e5cf5c;stop-opacity:1;"
         offset="0.32142863"
         id="stop4059-2-0" />
      <stop
         id="stop4061-4-9"
         offset="0.5"
         style="stop-color:#e5c547;stop-opacity:1;" />
      <stop
         style="stop-color:#ffffa3;stop-opacity:1;"
         offset="0.75"
         id="stop4063-5-7" />
      <stop
         id="stop4065-2-2"
         offset="0.875"
         style="stop-color:#ffd94d;stop-opacity:1;" />
      <stop
         style="stop-color:#ffdb4e;stop-opacity:1;"
         offset="1"
         id="stop4067-9-2" />
    </linearGradient>
    <linearGradient
       xlink:href="#linearGradient4070-9-0-5"
       id="linearGradient5702"
       x1="309.286"
       y1="148.853"
       x2="320.714"
       y2="148.853"
       gradientUnits="userSpaceOnUse" />
    <linearGradient
       id="linearGradient4070-9-0-5">
      <stop
         id="stop4072-5-5-3"
         offset="0"
         style="stop-color:#a3a3a3;stop-opacity:1;" />
      <stop
         id="stop4074-5-2-2"
         offset="0.14285725"
         style="stop-color:#b0b0b0;stop-opacity:1;" />
      <stop
         style="stop-color:#d1d1d1;stop-opacity:1;"
         offset="0.32142863"
         id="stop4076-40-4-9" />
      <stop
         id="stop4078-3-2-7"
         offset="0.5"
         style="stop-color:#bdbdbd;stop-opacity:1;" />
      <stop
         style="stop-color:#e5e5e5;stop-opacity:1;"
         offset="0.75"
         id="stop4080-4-3-3" />
      <stop
         id="stop4082-1-8-7"
         offset="0.875"
         style="stop-color:#cccccc;stop-opacity:1;" />
      <stop
         style="stop-color:#cccccc;stop-opacity:1;"
         offset="1"
         id="stop4084-2-5-4" />
    </linearGradient>
    <linearGradient
       gradientTransform="translate(458.427,563.081)"
       y2="148.853"
       x2="320.714"
       y1="148.853"
       x1="309.286"
       gradientUnits="userSpaceOnUse"
       id="linearGradient5734"
       xlink:href="#linearGradient4070-9-0-5" />
    <linearGradient
       gradientUnits="userSpaceOnUse"
       y2="677.106"
       x2="447.174"
       y1="673.535"
       x1="155.416"
       id="linearGradient8098"
       xlink:href="#linearGradient4070-9-0-5" />
    <linearGradient
       gradientUnits="userSpaceOnUse"
       y2="621.984"
       x2="353.558"
       y1="622.877"
       x1="235.797"
       id="linearGradient8090"
       xlink:href="#linearGradient6713" />
    <linearGradient
       gradientUnits="userSpaceOnUse"
       y2="623.751"
       x2="393.991"
       y1="623.751"
       x1="276.408"
       id="linearGradient8082"
       xlink:href="#linearGradient6713" />
    <linearGradient
       gradientUnits="userSpaceOnUse"
       y2="2720.7"
       x2="1695.24"
       y1="2726.81"
       x1="1269.68"
       id="linearGradient8074"
       xlink:href="#linearGradient6713" />
    <linearGradient
       gradientUnits="userSpaceOnUse"
       y2="487.316"
       x2="409.226"
       y1="487.673"
       x1="208.102"
       id="linearGradient8066"
       xlink:href="#linearGradient6713" />
    <linearGradient
       id="linearGradient6713">
      <stop
         id="stop6715"
         offset="0"
         style="stop-color:#cc992d;stop-opacity:1;" />
      <stop
         id="stop6717"
         offset="0.14285725"
         style="stop-color:#e1a832;stop-opacity:1;" />
      <stop
         style="stop-color:#e5cf5c;stop-opacity:1;"
         offset="0.32142863"
         id="stop6719" />
      <stop
         id="stop6721"
         offset="0.5"
         style="stop-color:#e5c547;stop-opacity:1;" />
      <stop
         style="stop-color:#ffffa3;stop-opacity:1;"
         offset="0.75"
         id="stop6723" />
      <stop
         id="stop6725"
         offset="0.875"
         style="stop-color:#ffd94d;stop-opacity:1;" />
      <stop
         style="stop-color:#ffdb4e;stop-opacity:1;"
         offset="1"
         id="stop6727" />
    </linearGradient>
    <linearGradient
       id="linearGradient4053-4">
      <stop
         id="stop4055-9"
         offset="0"
         style="stop-color:#cc992d;stop-opacity:1;" />
      <stop
         id="stop4057-8"
         offset="0.14285725"
         style="stop-color:#e1a832;stop-opacity:1;" />
      <stop
         style="stop-color:#e5cf5c;stop-opacity:1;"
         offset="0.32142863"
         id="stop4059-2" />
      <stop
         id="stop4061-4"
         offset="0.5"
         style="stop-color:#e5c547;stop-opacity:1;" />
      <stop
         style="stop-color:#ffffa3;stop-opacity:1;"
         offset="0.75"
         id="stop4063-5" />
      <stop
         id="stop4065-2"
         offset="0.875"
         style="stop-color:#ffd94d;stop-opacity:1;" />
      <stop
         style="stop-color:#ffdb4e;stop-opacity:1;"
         offset="1"
         id="stop4067-9" />
    </linearGradient>
    <linearGradient
       id="linearGradient4053-4-7">
      <stop
         id="stop4055-9-8"
         offset="0"
         style="stop-color:#cc992d;stop-opacity:1;" />
      <stop
         id="stop4057-8-8"
         offset="0.14285725"
         style="stop-color:#e1a832;stop-opacity:1;" />
      <stop
         style="stop-color:#e5cf5c;stop-opacity:1;"
         offset="0.32142863"
         id="stop4059-2-1" />
      <stop
         id="stop4061-4-6"
         offset="0.5"
         style="stop-color:#e5c547;stop-opacity:1;" />
      <stop
         style="stop-color:#ffffa3;stop-opacity:1;"
         offset="0.75"
         id="stop4063-5-3" />
      <stop
         id="stop4065-2-8"
         offset="0.875"
         style="stop-color:#ffd94d;stop-opacity:1;" />
      <stop
         style="stop-color:#ffdb4e;stop-opacity:1;"
         offset="1"
         id="stop4067-9-7" />
    </linearGradient>
    <linearGradient
       id="linearGradient6945-3">
      <stop
         id="stop6947-8"
         offset="0"
         style="stop-color:#cc992d;stop-opacity:1;" />
      <stop
         id="stop6949-3"
         offset="0.14285725"
         style="stop-color:#e1a832;stop-opacity:1;" />
      <stop
         style="stop-color:#e5cf5c;stop-opacity:1;"
         offset="0.32142863"
         id="stop6951-7" />
      <stop
         id="stop6953-1"
         offset="0.5"
         style="stop-color:#e5c547;stop-opacity:1;" />
      <stop
         style="stop-color:#ffffa3;stop-opacity:1;"
         offset="0.75"
         id="stop6955-0" />
      <stop
         id="stop6957-7"
         offset="0.875"
         style="stop-color:#ffd94d;stop-opacity:1;" />
      <stop
         style="stop-color:#ffdb4e;stop-opacity:1;"
         offset="1"
         id="stop6959-3" />
    </linearGradient>
    <linearGradient
       id="linearGradient11765">
      <stop
         id="stop11767"
         offset="0"
         style="stop-color:#cc992d;stop-opacity:1;" />
      <stop
         id="stop11769"
         offset="0.14285725"
         style="stop-color:#e1a832;stop-opacity:1;" />
      <stop
         style="stop-color:#e5cf5c;stop-opacity:1;"
         offset="0.32142863"
         id="stop11771" />
      <stop
         id="stop11773"
         offset="0.5"
         style="stop-color:#e5c547;stop-opacity:1;" />
      <stop
         style="stop-color:#ffffa3;stop-opacity:1;"
         offset="0.75"
         id="stop11775" />
      <stop
         id="stop11777"
         offset="0.875"
         style="stop-color:#ffd94d;stop-opacity:1;" />
      <stop
         style="stop-color:#ffdb4e;stop-opacity:1;"
         offset="1"
         id="stop11779" />
    </linearGradient>
    <linearGradient
       id="linearGradient4070-6-1-3-6">
      <stop
         id="stop4072-2-3-5-5"
         offset="0"
         style="stop-color:#a3a3a3;stop-opacity:1;" />
      <stop
         id="stop4074-3-2-9-1"
         offset="0.14285725"
         style="stop-color:#b0b0b0;stop-opacity:1;" />
      <stop
         style="stop-color:#d1d1d1;stop-opacity:1;"
         offset="0.32142863"
         id="stop4076-8-1-9-0" />
      <stop
         id="stop4078-2-6-8-9"
         offset="0.5"
         style="stop-color:#bdbdbd;stop-opacity:1;" />
      <stop
         style="stop-color:#e5e5e5;stop-opacity:1;"
         offset="0.75"
         id="stop4080-6-3-1-9" />
      <stop
         id="stop4082-2-8-8-6"
         offset="0.875"
         style="stop-color:#cccccc;stop-opacity:1;" />
      <stop
         style="stop-color:#cccccc;stop-opacity:1;"
         offset="1"
         id="stop4084-7-3-2-8" />
    </linearGradient>
    <linearGradient
       id="linearGradient23124-6-4">
      <stop
         id="stop23126-0-8"
         offset="0"
         style="stop-color:#cc992d;stop-opacity:1;" />
      <stop
         id="stop23128-3-4"
         offset="0.14285725"
         style="stop-color:#e1a832;stop-opacity:1;" />
      <stop
         style="stop-color:#e5cf5c;stop-opacity:1;"
         offset="0.32142863"
         id="stop23130-8-9" />
      <stop
         id="stop23132-0-9"
         offset="0.5"
         style="stop-color:#e5c547;stop-opacity:1;" />
      <stop
         style="stop-color:#ffffa3;stop-opacity:1;"
         offset="0.75"
         id="stop23134-1-2" />
      <stop
         id="stop23136-2-5"
         offset="0.875"
         style="stop-color:#ffd94d;stop-opacity:1;" />
      <stop
         style="stop-color:#ffdb4e;stop-opacity:1;"
         offset="1"
         id="stop23138-5-5" />
    </linearGradient>
    <linearGradient
       id="linearGradient11800">
      <stop
         id="stop11802"
         offset="0"
         style="stop-color:#cc992d;stop-opacity:1;" />
      <stop
         id="stop11804"
         offset="0.14285725"
         style="stop-color:#e1a832;stop-opacity:1;" />
      <stop
         style="stop-color:#e5cf5c;stop-opacity:1;"
         offset="0.32142863"
         id="stop11806" />
      <stop
         id="stop11808"
         offset="0.5"
         style="stop-color:#e5c547;stop-opacity:1;" />
      <stop
         style="stop-color:#ffffa3;stop-opacity:1;"
         offset="0.75"
         id="stop11810" />
      <stop
         id="stop11812"
         offset="0.875"
         style="stop-color:#ffd94d;stop-opacity:1;" />
      <stop
         style="stop-color:#ffdb4e;stop-opacity:1;"
         offset="1"
         id="stop11814" />
    </linearGradient>
  </defs>
  <metadata
     id="metadata9850">
    <rdf:RDF>
      <cc:Work
         rdf:about="">
        <dc:format>image/svg+xml</dc:format>
        <dc:type
           rdf:resource="http://purl.org/dc/dcmitype/StillImage" />
        <dc:creator>
          <cc:Agent>
            <dc:title>https://commons.wikimedia.org/wiki/File:S-Hertogenbosch_wapen.svg</dc:title>
          </cc:Agent>
        </dc:creator>
      </cc:Work>
    </rdf:RDF>
  </metadata>
  <g
     id="layer1"
     transform="translate(-534.65,-28.6727)">
    <g
       transform="matrix(1.55596,0,0,1.57395,85.0492,-374.203)"
       id="layer1-9">
      <g
         transform="matrix(1.45863,0,0,1.58696,-327.223,988.938)"
         id="g17283">
        <g
           transform="translate(365.563,281.952)"
           id="g29876">
          <path
             id="path21180"
             d="m 78.5557,-630.144 c -3.9819,4.131 -5.0673,5.257 0,0 z"
             style="fill:#ffffff;fill-opacity:0.372641;stroke:none" />
          <path
             style="fill:#ffb380;fill-opacity:1;stroke:none"
             d="m 162.441,-726.86 c -8.575,-19.28 -36.798,-9.819 -38.611,8.817 -3.304,9.632 7.4,9.696 6.761,19.66 4.473,9.126 1.421,13.944 -8.722,16.436 -11.082,7.152 -18.27,18.233 -28.6219,26.35 -1.8408,2.639 -10.88,-5.182 -10.2771,3.255 -10.0526,-1.151 -14.5757,17.791 -13.9313,17.292 -6.7791,-1.235 -16.8664,2.726 -9.6295,10.57 5.7692,3.458 7.7393,-0.908 14.8114,1.385 1.9821,-0.592 1.2133,-12.267 8.8925,-5.75 6.3001,1.969 9.8546,-5.495 14.7462,-8.352 7.0097,-3.162 16.9677,-17.793 17.7947,-4.143 2.512,12.551 -14.703,0.337 -18.7097,3.993 -2.6443,3.608 -15.3343,7.769 -6.7464,10.799 5.7877,7.573 27.9621,1.977 24.5801,12.849 4.263,13.264 -1.646,26.605 -5.147,39.652 -4.811,17.609 -4.887,35.976 -2.977,53.975 0.201,7.096 0.929,14.194 -1.649,20.972 2.611,16.219 -5.3053,33.616 0.261,50.617 2.054,11.622 3.899,28.466 -9.349,34.171 -5.6861,3.586 -11.9669,7.164 -16.8306,11.302 5.2279,4.125 15.0186,-2.917 22.2036,-2.057 7.571,-4.242 24.816,-3.116 21.029,-15.538 0.122,-7.998 0.245,-15.996 0.368,-23.994 7.465,-11.064 12.971,-24.653 7.492,-37.619 0.966,-10.701 6.816,-20.943 5.573,-32.092 0.604,-5.919 4.814,-11.433 7.949,-16.517 4.049,-6.65 1.032,-22.123 6.087,-8.315 7.913,14.109 8.704,31.34 18.454,44.414 2.34,15.446 8.971,27.553 10.242,43.778 2.211,9.109 8.177,17.018 7.507,26.677 1.063,10.052 2.484,22.046 -7.347,28.627 -9.404,6.213 5.476,2.785 9.816,3.516 5.773,1.32 9.419,-1.676 12.169,-6.489 11.45,-2.854 0.503,-11.275 0.588,-18.597 -1.904,-7.46 -3.788,-15.116 -0.655,-22.613 4.045,-18.751 0.462,-39.065 -10.78,-54.685 -2.727,-11.198 1.173,-23.12 0.81,-34.587 1.69,-17.899 -2.988,-35.242 -6.875,-52.487 -2.009,-8.646 -2.661,-18.23 -6.006,-26.024 -3.247,-16.274 10.177,-27.907 15.265,-43.1 1.028,-12.216 3.085,-27.481 -5.272,-37.223 -7.984,-2.536 -15.969,-5.072 -23.953,-7.608 -2.305,-6.835 -4.725,-13.162 0.918,-19.049 0.993,-4.206 -0.48,-8.494 -2.228,-12.268 z"
             id="path3000-5" />
          <path
             style="fill:#000000;fill-opacity:0.0188679"
             d="m 176.276,-393.473 c 4.094,-3.585 10.515,-1.076 12.738,-7.753 12.266,-4.726 0.168,-14.607 0.265,-24.099 -3.943,-10.712 2.707,-21.421 1.882,-32.37 0.642,-14.381 -4.27,-28.509 -12.29,-40.247 -2.907,-10.811 1.155,-22.441 0.747,-33.539 1.856,-19.571 -3.51,-38.496 -7.564,-57.397 -2.435,-11.669 -4.902,-22.094 -5.804,-33.195 2.657,-11.46 13.239,-20.567 15.891,-32.515 0.526,-11.643 2.014,-24.783 -3.718,-35.356 4.086,-2.353 17.432,5.376 14.938,15.039 -0.776,11.102 3.183,23.056 -4.024,33.136 -7.253,10.987 -14.392,21.544 -11.667,34.446 5.206,13.134 5.425,28.496 9.954,42.225 5.954,22.35 1.482,45.539 1.387,68.125 4.941,11.014 12.601,21.359 12.769,34.112 2.578,12.313 -3.473,24.383 -2.549,36.423 2.141,6.894 1.579,14.966 6.605,20.563 0.176,5.392 -7.845,12.422 -13.444,13.674 -2.236,-1.236 -20.778,2.625 -16.116,-1.272 z m -95.6284,-7.573 c -0.6268,-12.072 30.4664,-6.093 30.9344,-19.823 -0.133,-9.208 -0.299,-18.835 0.597,-27.919 6.001,-10.169 13.259,-22.708 7.103,-34.49 -0.615,-11.446 6.964,-21.812 5.504,-33.501 -0.115,-9.678 10.543,-16.244 10.415,-26.063 -2.107,-16.963 9.884,10.585 7.262,13.715 -6.088,7.801 -7.7,16.511 -7.489,26.125 -0.76,9.081 -7.976,18.287 -3.181,27.303 3.666,11.688 -4.867,21.924 -9.077,31.912 -0.308,10.296 -0.03,20.906 -0.595,30.962 -10.111,4.668 -21.4,8.787 -32.7491,9.502 -2.8894,0.813 -5.6389,2.554 -8.7243,2.277 z M 102.8,-621.606 c -10.4147,-2.853 -6.4492,-2.816 1.91,-0.581 1.451,0.525 -1.602,2.943 -1.91,0.581 z m -41.5172,-1.056 c -8.0504,-8.611 5.5901,0.07 5.1046,-11.24 5.1061,2.281 18.31,2.147 9.9143,5.629 -0.9409,13.575 -10.121,-5.596 -9.3765,5.654 -2.456,-1.722 -3.7387,-0.776 -5.6424,-0.04 z m 34.9758,-16.774 c -15.223,-0.784 3.5627,-8.71 5.2154,-12.324 6.461,5.444 3.908,14.298 -5.2154,12.324 z m 61.9264,-57.852 c -8.906,-1.47 -10.537,-15.035 -4.42,-20.858 5.87,-8.094 -17.381,-24.979 0.151,-17.623 13.557,5.769 10.944,22.185 7.518,31.964 0.618,5.17 6.021,11.155 -3.249,6.517 z"
             id="path3820-5" />
          <path
             style="fill:#ffffff;fill-opacity:0.0896226"
             d="m 175.286,-393.226 c 11.413,-7.017 13.097,-20.467 10.669,-32.539 0.746,-10.004 -6.208,-18.016 -7.907,-27.603 -2.758,-12 -2.108,-23.52 -8.927,-33.533 0.468,-11.823 -10.001,-19.998 -11.104,-31.839 -4.119,-9.307 -6.266,-17.896 -3.318,-27.875 7.48,14.1 11.435,29.548 17.132,44.341 7.58,7.685 3.3,20.398 11.218,27.507 0.184,14.649 4.71,28.843 10.496,42.07 0.368,12.456 5.37,27.741 -6.532,36.535 -1.728,4.501 -10.457,3.836 -11.727,2.936 z m -94.6297,-8.486 c -0.1338,-10.529 26.1717,-11.976 25.5457,-27.225 1.785,-19.181 -6.7536,-38.482 -0.685,-57.507 1.86,-7.658 -1.324,-15.574 1.43,-23.628 -0.602,-20.351 -3.541,-40.985 1.889,-61.005 1.546,-11.973 9.51,-23.68 7.107,-35.892 -0.259,-10.186 -0.71,-15.038 -12.873,-15.215 -6.7713,-1.222 -27.8832,-11.526 -9.7144,-6.654 8.9494,5.457 23.8824,6.805 30.5044,11.765 -0.971,10.336 3.029,21.5 -3.051,31.833 -6.789,20.72 -8.726,42.77 -5.991,64.364 0.512,7.808 0.474,15.472 -1.665,22.996 4.389,12.134 -4.936,24.893 -1.303,37.856 1.106,14.457 9.141,35.454 -6.624,44.717 -8.4273,4.004 -15.3892,12.349 -24.5697,13.595 z M 61.3056,-623.309 c -8.3465,-5.016 -2.8017,-14.741 5.0727,-11.48 9.4989,1.763 -0.2189,-5.703 6.1102,-9.598 3.2825,-7.414 9.9021,-10.649 16.275,-12.409 7.4142,5.889 -9.9059,5.635 -8.9023,13.942 -5.6295,4.306 4.7346,10.19 -5.3694,8.49 -7.8562,-2.701 -12.6148,5.094 -6.082,10.973 -3.3059,-0.253 -4.6758,-1.567 -7.1042,0.08 z m 11.8795,-0.219 c 0.7736,-1.68 0.5489,1.063 0,0 z m 42.1699,-12.684 c 0.185,0.456 -0.857,-10.956 5.038,-12.657 5.955,4.977 5.384,17.152 -5.04,12.66 z m -16.196,-18.517 c -12.8379,-3.956 11.198,-12.254 12.522,-19.759 7.729,-10.226 28.877,-10.116 18.486,-26.271 -0.4,-9.341 -12.637,-11.829 -3.974,-22.274 1.299,-11.014 13.996,-17.336 24.011,-14.482 -12.556,0.06 -25.493,24.322 -13.847,29.627 1.996,10.216 10.645,23.332 -5.339,25.162 -11.82,7.24 -19.578,18.822 -30.263,27.534 l -1.0177,0.978 -0.5783,-0.518 z"
             id="path3845-1" />
          <path
             style="fill:#000000;fill-opacity:0.0613208"
             d="m 122.563,-419.887 c 2.667,-11.599 -9.057,-23.804 -4.842,-32.807 10.997,-12.847 5.047,-32.602 -10.813,-37.997 6.809,-0.946 25.379,0.527 21.314,-11.493 -0.845,-8.609 -22.551,-16.852 -4.618,-15.254 17.026,-5.339 6.404,-26.317 1.787,-37.383 -1.235,-18.125 23.908,-16.12 34.156,-8.337 -1.017,11.171 -1.599,26.153 -3.331,35.263 -3.529,-3.587 -11.008,-28.973 -10.358,-12.144 -0.335,9.821 -9.386,17.087 -9.522,26.583 0.113,10.036 -3.53,19.641 -6.12,29.057 2.698,10.825 4.41,22.964 -3.305,32.43 -6.712,6.65 -3.292,16.171 -4.24,24.45 -0.03,2.534 -0.03,5.124 -0.108,7.632 z m 79.093,-32.505 c -3.72,-13.902 -6.446,-36.76 -19.103,-42.555 -13.013,-1.878 0.893,19.898 -9.02,8.829 -9.421,-9.184 7.06,-12.192 7.092,-16.244 -5.212,-23.353 -4.9,-48.157 -14.386,-70.392 -2.251,-10.665 -25.595,-2.197 -14.918,-16.836 6.841,-3.686 15.149,-29.431 1.143,-18.028 -4.073,8.619 -14.266,3.53 -14.427,-4.801 9.086,-0.757 15.862,-10.536 24.63,-14.913 6.372,-11.997 19.273,-17.617 22.211,-31.497 2.72,-7.697 3.944,-25.306 -8.947,-21.981 9.284,-10.206 20.184,-5.334 17.444,8.366 1.01,11.576 1.484,24.063 -6.059,34.082 -8.499,9.993 -9.749,20.487 -9.253,31.982 5.762,14.686 5.79,30.909 10.632,45.915 4.569,20.754 1.552,41.982 -0.844,62.792 10.33,13.579 13.867,30.721 14.179,47.454 l -0.38,-2.177 z M 81.7063,-635.474 c -6.3832,-2.588 -10.5448,-9.571 -1.7202,-2.799 0.4847,0.353 5.9894,4.637 1.7202,2.799 z m 59.4357,-1.568 c -3.241,-7.811 -23.84,-6.034 -21.611,-7.48 6.707,-4.453 10.178,-7.279 17.415,-2.068 7.822,-4.06 14.371,-14.029 21.391,-20.673 -4.77,9.898 -16.494,19.319 -17.195,30.221 z m -55.6262,-2.1 c -5.8513,-2.871 -11.083,-11.823 -2.3455,-3.705 -0.6513,-0.88 5.3576,5.181 2.3455,3.705 z m 3.7625,-4.609 c -6.0538,-3.082 -10.6788,-11.866 -1.5903,-2.992 -0.485,-0.867 4.4678,4.587 1.5903,2.992 z m 60.0857,-63.148 c -5.741,-1.913 -10.752,-19.813 -1.892,-18.876 12.752,-4.612 20.118,10.642 10.111,18.212 -2.878,2.553 -5.104,4.416 -8.219,0.664 z m -15.317,-11.203 c -12.412,-7.384 16.663,-4.79 1.848,0.117 z"
             id="path3940" />
          <path
             style="fill:#ffffff;fill-opacity:0.136792"
             d="m 188.485,-432.429 c -7.283,-11.33 -9.45,-25.866 -9.288,-39.204 7.82,-1.267 9.593,21.355 11.123,30.004 -0.263,2.552 1.601,8.795 -1.835,9.2 z m -80.593,-9.742 c -4.37,-11.447 -1.918,-24.595 0.207,-36.414 7.128,-15.043 6.125,17.13 4.578,23.258 -1.108,3.614 -0.744,11.657 -4.785,13.156 z m 64.429,-60.523 c -11.242,-8.823 -17.312,-29.371 -9.227,-41.655 12.728,2.708 14.866,21.014 15.395,32.286 -0.185,3.454 -1.1,10.659 -6.168,9.369 z m -55.64,-6.076 c -10.42,-8.789 -9.244,-26.097 -5.723,-38.168 10.253,-13.782 15.733,13.356 13.918,21.935 -0.698,5.087 -1.083,16.135 -8.195,16.233 z m 10.588,-71.169 c -13.617,1.053 -12.936,-8.522 -9.246,-18.359 -4.79,-10.383 -2.255,-23.533 10.864,-12.743 7.436,8.348 14.115,13.02 24.159,5.24 17.373,-8.666 6.005,16.769 -3.382,18.91 -6.505,4.504 -14.409,7.423 -22.395,6.952 z m -68.2795,-45.45 c -2.8762,-7.809 3.2151,-5.375 0,0 z m 13.9205,-0.545 c -0.5225,-9.475 5.2866,-5.081 0,0 z m -9.9915,-0.38 c -3.394,-12.584 3.6867,-1.618 0,0 z m 5.2645,-0.126 c -2.2514,-8.405 3.6285,-7.131 0,0 z m 75.997,-0.338 c -14.516,-6.9 -31.672,-5.407 -47.0692,-2.641 -4.0462,2.069 8.3472,-8.277 14.0802,-5.155 10.644,0.261 21.492,-0.94 31.916,1.692 4.006,-9.827 4.563,-22.658 15.611,-27.82 -1.542,-7.177 2.662,-12.293 9.349,-13.692 14.679,-9.164 0.383,15.534 -4.277,20.909 -1.918,11.003 -14.156,18.719 -19.61,26.707 z m -9.967,-78.421 c -7.365,-8.24 0.243,-14.12 4.824,-8.465 0.544,2.669 -4.873,6.945 -4.824,8.465 z m 7.36,-2.904 c -3.639,-4.676 3.043,-19.488 -7.157,-16.766 4.378,-10.736 30.265,3.068 12.986,0.162 -10.294,-0.111 1.344,16.75 -5.827,16.595 z"
             id="path4261" />
          <path
             style="fill:#000000;fill-opacity:0.132075"
             d="m 175.065,-392.315 c 7.282,-2.081 18.051,3.061 22.729,-4.292 7.426,-4.751 8.753,-9.124 3.74,-16.499 -1.737,-9.212 -5.706,-18.479 -1.622,-27.778 3.979,-18.655 0.227,-38.717 -10.851,-54.25 -2.816,-9.749 0.907,-20.289 0.577,-30.314 1.752,-18.578 -1.506,-36.999 -6.274,-54.876 -0.294,-5.459 -6.519,-27.399 -4.089,-23.924 3.111,17.129 7.319,34.042 10.534,51.131 2.716,18.664 -0.985,37.516 -0.78,56.129 3.687,9.149 10.579,17.12 11.743,27.366 3.709,13.942 -0.739,28.036 -1.844,41.817 2.328,7.293 1.695,15.89 6.908,21.879 0.272,5.417 -7.815,12.388 -13.366,13.709 -5.177,-0.162 -13.562,0.657 -17.405,-0.1 z m -94.3818,-8.743 c 4.008,-3.645 18.6695,-3.014 26.1628,-6.71 16.26,-0.584 16.345,-12.93 14.945,-25.866 0.253,-5.936 -0.992,-12.274 3.279,-17.127 7.111,-9.638 7.936,-21.638 4.404,-32.519 0.961,-10.494 6.787,-20.468 5.522,-31.387 0.568,-9.416 10.724,-15.947 10.436,-25.754 0.643,-16.622 2.812,10.378 -4.037,13.116 -6.33,7.653 -5.773,16.714 -6.676,25.986 -1.572,9.069 -7.643,18.175 -2.499,27.305 2.99,11.649 -6.548,20.913 -9.485,31.028 -0.306,10.025 -0.02,20.361 -0.584,30.146 -10.113,4.671 -21.391,8.791 -32.7484,9.505 -2.8876,0.813 -5.636,2.55 -8.7194,2.277 z m 93.0108,-75.746 c -1.479,-1.188 1.685,1.004 0,0 z m 3.465,-130.341 c -0.04,-9.013 -2.02,-18.275 6.024,-26.039 9.37,-11.331 11.006,-25.781 9.386,-39.605 2.114,-5.96 -8.52,-22.439 -0.48,-8.656 0.866,10.912 3.551,22.452 0.116,33.32 -2.472,12.484 -19.348,22.457 -13.317,35.685 -0.357,1.04 -0.645,5.8 -1.729,5.295 z m -64.083,-12.121 c -11.802,-0.518 -21.0432,-8.834 -32.4084,-10.054 -4.4568,-4.593 -8.9593,10.887 -7.6067,5.849 7.9066,-4.119 -4.3225,-13.692 4.208,-7.27 12.7661,2.949 25.2141,9.794 37.8961,11.91 l -2.089,-0.437 z m -51.7611,-3.388 c -1.3553,-2.26 5.0114,-1.353 0,0 z m 5.3993,0.02 c -2.1226,-2.469 8.5386,-2.392 0,0 z m -2.8269,-0.367 c -1.8109,-2.848 4.0389,0.02 0,0 z m 35.8467,-15.92 c 2.525,-1.781 18.667,-16.808 8.304,-5.07 -2.27,1.848 -6.339,4.442 -8.304,5.07 z m 14.922,-6.402 c 0.127,-0.232 0.339,0.61 0,0 z m -24.2004,-9.651 c -1.4884,-1.42 1.608,1.279 0,0 z m 72.8624,-41.073 c -5.273,-8.043 -2.178,-14.75 0.873,-22.525 0.361,-6.52 -9.955,-21.143 -1.556,-7.919 7.26,11.937 -6.512,19.345 0.683,30.444 z m -37.513,-12.262 c -4.514,-1.567 5.32,-0.518 0,0 z"
             id="path4341" />
          <path
             style="fill:#ffffff;fill-opacity:0.183962"
             d="m 174.618,-391.952 c 12.254,-7.224 13.646,-21.397 11.234,-34.036 0.384,-10.44 -7.123,-18.904 -8.451,-29.137 -2.614,-5.681 -2.801,-31.892 -1.106,-12.823 0.749,12.666 5.281,24.727 10.114,36.228 0.37,12.453 5.355,27.736 -6.538,36.528 -1.828,1.052 -2.802,3.963 -5.253,3.24 z m -94.6362,-9.355 c 1.8117,-10.02 23.1642,-11.082 25.4822,-23.793 4,-18.919 -5.8906,-37.939 -0.853,-56.931 3.813,-9.101 -0.861,-17.955 2.296,-27.356 -0.398,-20.053 -3.682,-40.33 1.672,-60.086 1.757,-12.217 9.158,-23.846 7.533,-36.351 -4.595,-6.856 3.329,-18.908 -0.583,-4.481 5.938,13.476 -3.969,27.366 -5.761,40.787 -5.752,20.788 -2.014,42.138 -1.775,63.257 -3.216,10.095 1.535,19.58 -3.134,29.775 -3.609,18.552 7.417,37.59 0.213,55.591 -5.3445,8.916 -20.7094,11.974 -25.0902,19.588 z m 93.6432,-75.462 c -5.801,-12.889 -9.787,-26.522 -15.305,-40.145 -2.194,-9.953 -7.728,-18.93 -10.954,-28.353 5.055,8.82 10.567,22.896 13.734,34.525 4.179,10.725 10.007,19.706 10.936,31.388 -2.984,-1.984 4.12,4.616 1.589,2.585 z M 61.0597,-622.739 c -11.0198,-9.953 2.2709,-13.528 10.5002,-11.61 -4.5034,-7.79 5.5877,-17.203 11.379,-18.931 0.05,-5.966 12.2795,-1.63 2.1317,-1.898 -4.9542,4.21 -10.4979,8.37 -14.2247,15.429 -1.1878,6.291 12.3302,11.985 0.694,5.795 -6.0851,0.394 -17.8836,-1.129 -12.1729,8.997 0.4149,0.661 3.2376,2.58 1.6927,2.218 z m 5.3296,0.04 c -0.5024,-0.867 0.7719,0.336 0,0 z m 4.9927,-0.266 c -1.2494,-2.656 1.7472,0.546 0,0 z m -7.5794,-0.1 c 0.092,-0.529 0.2441,0.525 0,0 z M 108.16,-635.28 c -16.1357,-5.11 11.451,5.226 7.509,-4.62 0.835,-5.899 -6.093,-11.629 0.97,-3.177 1.422,8.952 -0.305,8.533 -8.479,7.797 z m -16.0002,-18.375 c 5.4179,-7.953 15.9672,-14.073 21.9842,-22.593 7.695,-8.202 25.353,-8.358 16.302,-22.622 -2.351,-6.644 -2.225,-13.182 0.248,-2.337 4.159,9.816 4.995,17.505 -7.361,19.725 -11.032,6.521 -17.781,17.695 -27.8984,25.398 -0.9167,0.204 -2.5029,3.771 -3.2748,2.429 z m 84.5952,-37.348 c -6.506,-1.824 -17.573,-6.064 -4.762,-1.872 5.397,1.456 25.547,8.492 9.422,3.355 l -2.249,-0.716 z m -51.967,-17.682 c -4.712,-13.079 8.061,-32.068 23.677,-28.601 10.133,3.184 6.265,1.801 -1.076,0.494 -14.817,-1.584 -24.874,15.441 -22.276,28.126 0.476,0.739 -0.326,-0.29 -0.325,-0.02 z"
             id="path4337" />
          <path
             style="fill:#000000;fill-opacity:0.15566"
             d="m 115.624,-416.388 c -6.041,-4.294 -0.19,-0.781 1.018,-3.257 0.216,-7.453 3.79,3.224 -1.018,3.257 z m 67.461,-13.379 c -3.816,-6.062 3.305,-0.821 0,0 z m 1.757,-4.008 c -1.916,-3.69 3.033,-0.07 0,0 z m 1.112,-3.334 c -3.887,-7.348 3.018,-3.5 0,0 z m -78.401,-3.195 c -2.383,-5.119 3.219,-2.293 0,0 z m 82.85,-3.104 c -3.858,-7.096 4.189,-0.643 0,0 z m -4.59,-0.448 c -1.33,-4.079 3.511,1.039 0,0 z m -1.716,-2.261 c -2.434,-4.777 3.171,-0.641 0,0 z m 6.646,-0.97 c -7.698,-8.415 3.111,-1.84 0,0 z m -82.611,-0.817 c -2.105,-4.128 3.362,-1.573 0,0 z m 77.144,-1.679 c -2.339,-4.821 3.173,-0.573 0,0 z m 4.286,-1.391 c -4.468,-5.537 2.851,-2.024 0,0 z m -11.626,-0.701 c -3.61,-6.483 3.631,0.161 0,0 z m -69.604,-0.872 c -0.792,-4.848 3.208,0.493 0,0 z m 84.975,-0.51 c -2.194,-4.538 3.221,-0.53 0,0 z m -86.695,-0.231 c -1.591,-4.923 3.206,-0.238 0,0 z m 76.168,-0.293 c -2.635,-5.452 3.371,-1.173 0,0 z m 5.835,-2.851 c -5.706,-7.234 4.154,-0.377 0,0 z m -4.321,-0.37 c -3.174,-5.614 3.371,-0.962 0,0 z m 7.94,-0.04 c -1.972,-5.907 3.346,0.289 0,0 z m -14.238,-0.689 c -2.563,-6.77 3.646,-0.14 0,0 z m 3.803,-1.015 c -3.257,-4.767 3.118,-2.047 0,0 z m -71.5,-0.325 c -1.997,-4.276 3.067,-1.103 0,0 z m -3.856,-0.379 c -2.66,-5.025 3.769,-2.857 0,0 z m 14.453,-0.105 c -2.513,-6.265 3.474,-0.225 0,0 z m 67.126,-1.162 c -3.87,-5.423 2.806,-3.164 0,0 z m 3.448,0 c -2.118,-4.631 3.2,-0.473 0,0 z m -8.843,-1.153 c -3.02,-5.049 3.6,0.716 0,0 z m -61.382,-1.385 c -6.12,-6.827 2.408,-1.971 0,0 z m 69.279,0.13 c -2.385,-5.789 3.253,-0.495 0,0 z m -79.396,-0.485 c -2.973,-5.132 3.533,-1.288 0,0 z m -4.736,-1.911 c -2.967,-5.978 3.297,-3.39 0,0 z m 13.68,-1.607 c -5.668,-7.479 3.861,-0.601 0,0 z m -15.543,-2.706 c -2.703,-5.98 4.974,-0.515 0,0 z m 5.595,-0.766 c -1.984,-4.177 3.137,-0.636 0,0 z m 73.48,-3.217 c -0.338,-5.235 5.556,-4.918 0,0 z m -11.431,-1.344 c 3.394,-1.946 16.117,-8.034 4.622,-0.262 l -2.4,0.384 -2.222,-0.125 z m -65.086,-0.417 c -0.998,-4.775 3.015,0.04 0,0 z m 79.363,-1.575 c -2.423,-6.601 3.512,-2.573 0,0 z m 3.3,-1.782 c -3.237,-6.574 3.296,-3.319 0,0 z m -68.748,-0.147 c -2.039,-4.607 3.31,-0.342 0,0 z m -4.18,-4.374 c -2.137,-3.917 3.105,-1.049 0,0 z m 2.915,-0.04 c -2.039,-5.385 3.279,-0.437 0,0 z m 3.377,-1.507 c -2.294,-5.747 3.36,-0.218 0,0 z m -13.655,-4.817 c -10.2787,-1.318 16.892,-4.958 3.212,-0.386 l -1.48,0.448 -1.732,-0.06 z m 62.023,-4.126 c 3.39,-4.572 12.123,-0.105 1.452,0.06 z m -63.791,-5.454 c -4.564,-2.708 5.409,-0.532 0,0 z m 62.044,-2.255 c -2.816,-5.329 3.451,0.07 0,0 z m 4.961,-0.702 c -1.585,-4.107 3.63,0.553 0,0 z m -5.439,-2.34 c -3.646,-4.82 3.365,-2.272 0,0 z m -62.512,-0.784 c 0.533,-5.241 10.854,1.714 1.236,-0.475 l -0.836,0.724 -0.401,-0.247 z m 65.361,0.06 c -1.576,-5.249 3.238,0.454 0,0 z m -7.642,-4.928 c -3.186,-4.891 3.208,-2.339 0,0 z m 10.245,-2.028 c -1.033,-5.383 3.257,-0.232 0,0 z m -12.102,-2.201 c -3.365,-5.472 3.411,-0.751 0,-10e-4 z m 1.38,-1.261 c -2.304,-8.871 3.415,-1.357 0,0 z m -2.565,-3.566 c -1.418,-5.366 2.944,0.609 0,0 z m 1.829,-1.694 c -3.448,-8.457 3.432,-1.839 0,0 z m -40.109,-0.395 c -5.43,-7.287 3.125,-1.96 0,0 z m -9.364,-1.376 c -2.411,-4.04 2.8,-1.406 0,0 z m 60.828,-0.728 c -1.632,-5.459 3.292,-0.113 0,0 z m -14.771,-0.454 c -2.659,-5.464 3.762,0.844 0,0 z m -36.205,-0.466 c -7.028,-9.014 3.926,-1.483 0,0 z m 48.439,-1.078 c -4.783,-6.397 5.223,1.044 0,0 z m -12.93,-1.79 c -4.719,-6.483 3.958,-0.276 0,0 z m -46.141,-0.806 c -0.785,-3.483 3.33,0.427 0,0 z m 10.989,-0.03 c -6.224,-6.528 3.129,-2.454 0,0 z m 54.711,-0.215 c -3.218,-6.916 4.755,-1.286 0,0 z m -65.877,-2.072 c -1.66,-4.173 3.343,0.533 0,0 z m 62.729,-0.02 c -2.616,-5.863 3.467,-0.756 0,0 z m -51.634,-1.081 c -4.831,-4.278 1.686,-3.807 0,0 z m -6.029,-1.301 c -1.436,-3.052 3.711,1.01 0,0 z m 16.243,-1.07 c -0.473,-6.72 2.907,2.022 0,0 z m -10.24,-0.658 c -6.076,-9.032 2.947,-2.471 0,0 z m -6.411,-0.722 c -0.689,-5.787 3.143,0.563 0,0 z m 16.293,-3.13 c -2.615,-5.211 3.476,-0.421 0,0 z m -18.832,-0.626 c -2.094,-5.518 3.879,-2.318 0,0 z m -4.539,-1.388 c -1.734,-3.267 2.621,-0.634 0,0 z m 15.177,-0.274 c -1.411,-4.593 3.412,-0.22 0,0 z m 7.895,-1.555 c -2.405,-7.404 3.891,1.3 0,0 z m -17.227,0.112 c -1.568,-6.038 3.889,-0.685 0,0 z m -2.759,-1.45 c -0.521,-4.756 3.404,0.02 0,0 z m 6.999,-0.617 c -1.37,-6.442 3.774,-0.48 0,0 z m 3.071,-0.269 c -0.61,-4.699 2.798,0.926 0,0 z m -7.647,-1.975 c -1.135,-5.541 3.442,0.07 0,0 z m -3.372,-2.102 c -1.996,-3.058 3.451,-0.776 0,0 z m 18.124,-17.908 c -2.327,-5.915 3.937,1.101 0,0 z m 3.284,-3.269 c -2.208,-8.141 3.619,-0.415 0,0 z m -2.868,-0.647 c -1.18,-4.488 3.147,-0.16 0,0 z m 9.212,-3.981 c -1.467,-6.341 1.301,-0.773 0,0 z m 2.958,-1.199 c -0.431,-1.769 0.848,-1.175 0,0 z m -6.099,-1.028 c -0.127,-6.415 1.052,1.383 0,0 z m 5.077,0.02 c -0.839,-3.156 0.893,-2.974 0,0 z m 5.301,-1.064 c -1.928,-3.836 1.073,-0.798 0,0 z m -12.73,-1.296 c -0.126,-3.105 0.888,2.754 0,0 z m 4.312,-0.456 c -4.031,-3.207 3.894,-0.524 0,0 z m 9.859,-0.109 c -1.249,-1.433 1.239,-0.459 0,0 z m -4.003,-1.084 c -5.109,-4.929 5.594,0.507 0,0 z m -3.559,-0.285 c -1.031,-5.557 3.318,-1.68 0,0 z m 9.722,-0.05 c -2.735,-3.778 1.33,-0.454 0,0 z m -3.731,-0.719 c -6.155,-4.184 6.184,-0.252 0,0 z m -11.679,-0.516 c -9.396,-3.389 3.062,-3.004 0,0 z m 14.686,-0.983 c -6.361,-2.994 -2.438,-10.766 -0.693,-1.488 1.432,-0.957 2.832,2.918 0.693,1.488 z m -12.47,0.202 c -0.29,-2.908 1.684,-2.332 0,0 z m 5.683,-0.75 c -2.859,-4.543 2.961,-1.208 0,0 z m -3.336,-0.266 c 0.858,-5.254 4.124,-0.296 0,0 z m 12.994,-0.959 c 0.602,-4.289 4.977,-1.438 0,0 z m -8.113,-0.359 c -2.009,-7.3 3.272,1.299 0,0 z m -17.823,-0.414 c -6.496,-3.185 4.321,-0.822 0,0 z m 10.025,-0.842 c -1.431,-4.756 1.332,-0.547 0,0 z m 5.329,-0.29 c -0.271,-6.572 3.685,-0.534 0,0 z m 13.99,-0.81 c -0.555,-3.946 5.654,-1.342 0,0 z m -16.104,-1.339 c 0.51,-3.989 4.13,-0.112 0,0 z m -5.033,-0.447 c -0.739,-3.3 5.041,-0.797 0,0 z m 24.741,-0.448 c 2.003,-5.72 3.697,0.434 0,0 z m -15.085,-0.534 c -5.304,-6.393 3.087,-2.147 0,0 z m -5.192,-0.619 c -6.146,-4.019 4.509,-0.675 0,0 z m 1.873,-0.514 c -2.02,-6.014 3.598,-4.382 0,0 z m 22.571,-0.561 c -0.466,-4.41 4.885,-1.867 0,0 z m -30.015,-0.751 c -0.544,-5.943 3.928,-1.328 0,0 z m 32.968,-0.289 c -1.359,-6.114 4.487,-0.16 0,0 z m 3.103,-2.497 c -2.306,-6.879 5.052,0.431 0,0 z m -27.333,-0.51 c -4.902,-4.407 3.453,-1.512 0,0 z m -4.666,-0.4 c -0.931,-3.383 -3.34,-4.577 1.395,-3.23 -1.432,0.906 1.109,4.225 -1.395,3.23 z m 34.511,-0.175 c -1.901,-5.919 4.494,0.94 0,0 z m 3.346,-1.669 c -4.609,-5.197 2.195,-3.418 0,0 z m -38.585,-3.076 c -0.09,-4.565 7.243,-2.998 0,0 z m -14.404,-2.048 c -0.264,-4.391 5.909,-4.078 2.103,-0.348 -0.54,0.524 -1.426,0.464 -2.103,0.348 z m 43.108,-0.661 c -1.996,-7.927 3.692,0.282 0,0 z m -15.255,-0.884 c -6.085,-6.496 4.883,0.79 0,0 z m -23.28,-0.69 c 0.1,-3.912 4.678,-1.176 0,0 z M 168.53,-606 c -2.099,-5.538 3.195,-1.141 0,0 z m -20.998,-0.49 c -2.046,-6.176 5.5,-3.356 0,0 z m -1.816,0.174 c -4.062,-4.37 3.036,-1.193 0,0 z m -7.601,-0.245 c -1.635,-6.446 3.351,0.24 0,0 z m -6.178,-0.29 c -0.963,-3.507 8.094,-3.223 0,0 z m 38.661,-0.517 c -2.191,-5.462 3.211,-1.051 0,0 z m -28.749,-0.229 c -3.592,-2.653 5.274,-0.09 0,0 z m -3.031,-2.143 c -5.527,-3.211 -20.766,-7.43 -23.182,-9.118 10.873,2.401 23.474,10.202 32.956,0.407 9.788,-5.752 16.038,-15.506 23.233,-23.306 7.163,-4.643 11.689,-18.335 13.461,-22.181 -0.317,14.626 -13.121,22.937 -20.761,33.787 -5.672,5.781 -12.031,12.63 -18.474,15.557 -3.19,1.422 -5.604,3.105 -7.233,4.854 z m 4.64,-0.309 c -0.922,-3.514 4.123,-1.132 0,0 z m 29.965,-0.06 c -1.082,-7.946 4.301,-3.829 0,0 z m 4.664,-22.251 c -0.841,-3.035 6.378,-2.008 0,0 z m -51.157,-4.181 c 1.594,-0.551 1.259,0.473 0,0 z m 8.89,-0.239 c 1.049,-1.658 1.832,1.25 0,0 z m -2.1,-0.207 c -2.975,-3.103 3.166,-0.239 0,0 z m 45.181,-1.043 c 6.777,-7.074 1.298,3.222 0,0 z m -48.769,-0.305 c -3.176,-3.433 3.284,-0.936 0,0 z m 9.028,0 c -0.08,-2.686 1.724,0.466 0,0 z m -11.243,-1.662 c -4.91,-4.417 4.105,-0.119 0,0 z m 11.581,-0.198 c 0.05,-4.647 3.58,-3.986 0,0 z m -8.219,-0.299 c -0.619,-4.848 2.857,0.615 0,0 z m 3.366,-1.276 c -5.068,-3.119 5.151,-0.346 0,-10e-4 z m 44.116,-0.115 c 2.401,-5.323 10.387,-2.815 0,0 z m -47.899,-1.123 c -6.481,-6.7 4.45,0.288 0,0 z m 6.66,-0.897 c -7.038,-1.515 5.09,-1.655 0,0 z m -10.285,-0.766 c -8.145,-4.068 7.293,-3.645 -0.149,-1.789 1.79,0.5 3.068,4.02 0.149,1.789 z m -13.131,-0.734 c 5.424,-0.472 13.186,-10.338 5.573,-1.111 -1.585,1.333 -3.679,1.273 -5.573,1.111 z m 24.918,-0.675 c -0.456,-4.044 7.089,1.61 0,0 z m -7.939,0.184 c 0.505,-4.146 6.076,0.243 0,0 z m 4.326,-0.188 c -1.285,-3.484 5.359,0.968 0,0 z m 0.01,-1.48 c -3.419,-2.868 7.645,0.06 0,0 z m 49.032,-0.298 c -3.024,-3.252 2.795,-1.452 0,0 z m -53.476,-1.662 c 0.469,-4.938 5.302,-2.346 0,0 z m 5.35,0.01 c 3.224,-4.5 9.542,-0.78 0,0 z m 50.16,-0.705 c -2.651,-3.338 2.905,-1.085 0,0 z m -69.32,-0.17 c -1.429,-1.436 7.39,-6.152 1.327,0.107 l -1.327,-0.103 z m 11.35,-0.254 c 1.95,-6.734 4.997,-0.156 0,0 z m 7.061,-1.602 c 0.09,-5.857 4.341,-1.85 0,0 z m -9.217,-0.549 c -0.583,-3.402 4.503,-0.877 0,0 z m -9.654,-0.389 c 1.763,-1.114 0.552,-0.422 0,0 z m 16.554,-1.198 c -2.806,-0.858 1.84,-3.019 0,0 z m 7.145,-0.463 c -4.854,-3.503 4.724,0.197 0,0 z m -2.797,-0.769 c -5.127,-3.82 1.196,-3.689 0,0 z m 5.279,-0.03 c -0.279,-3.794 3.574,1.568 0,0 z m -12.407,-1.274 c -2.443,-4.65 3.722,0.388 0,0 z m 15.093,-0.204 c -2.834,-2.343 4.012,-0.187 0,0 z m -3.986,-0.88 c -6.588,-4.022 4.094,-1.227 0,0 z m -3.478,-0.554 c -1.976,-3.45 2.959,-0.885 0,0 z m 3.918,-1.038 c -2.906,-3.278 2.35,-9.298 2.691,-2.563 -5.535,-0.163 4.484,-3.243 -2.691,2.563 z m 8.978,0 c -3.491,-6.454 3.099,-1.306 0,0 z m -15.737,-0.932 c -3.622,-4.23 3.243,-0.947 0,10e-4 z m -6.321,-1.008 c -2.471,-6.311 3.716,-0.98 0,0 z m 18.383,-0.161 c -3.834,-4.476 3.307,-0.355 0,0 z m -10.712,-0.816 c -2.525,-4.422 3.536,0.03 0,0 z m 7.728,-1.092 c -2.607,-5.599 4.37,-4.938 0,0 z m -5.594,-0.384 c -4.52,-5.806 4.026,-0.377 0,0 z m -6.378,-0.691 c -3.262,-5.092 3.113,-0.125 0,0 z m 53.123,-2.651 c -2.819,-4.225 3.786,-0.223 0,0 z m -42.296,-1.286 c -1.379,-3.963 2.919,0.431 0,0 z m 2.374,-1.074 c -0.602,-8.529 4.635,-2.404 0,0 z m 39.82,-0.865 c -2.703,-4.882 3.642,0.391 0,0 z m 0.553,-2.672 c -2.478,-3.895 3.077,-0.207 0,0 z m -0.295,-2.891 c -2.591,-3.74 3,-0.618 0,0 z m 0.379,-3.631 c -2.135,-3.953 4.134,1.737 0,0 z m -51.802,-5.94 c -9.983,-2.883 13.03,-1.033 0,0 z m 28.159,-1.065 c -0.383,-2.906 16.92,-0.245 4.437,0.116 l -2.299,0.105 -2.138,-0.218 z"
             id="path6120-9" />
          <path
             style="fill:#2e1200;fill-opacity:1"
             d="m 134.961,-676.77 c -7.684,-4.546 -10.242,-13.912 -10.057,-22.364 -1.117,-6.08 -5.405,-11.333 -4.857,-17.522 2.479,-4.529 4.986,-8.266 4.714,-13.567 2.126,-4.105 7.509,-5.697 10.768,-8.79 5.883,-0.365 10.544,-4.122 17.223,-0.127 6.765,5.455 14.632,12.234 15.789,21.271 -0.359,9.031 0.876,18.754 -1.883,27.183 -8.911,4.911 -17.357,10.646 -27.113,13.87 -1.439,0.843 -3.142,-0.471 -4.584,0.05 z m 8.841,-24.236 c 15.446,0.425 -8.378,-8.517 2.936,-7.665 4.553,2.771 7.663,1.609 7.703,-1.919 -0.398,-7.514 2.699,6.4 1.51,-4.969 0.883,-5.182 6.109,-14.459 -2.536,-15.116 -5.793,-3.873 -13.091,-3.75 -12.336,0.931 -2.984,-0.797 -5.211,3.171 -9.046,1.93 -4.787,5.096 -1.088,12.572 -1.064,19.06 1.147,8.201 9.686,-4.371 10.634,1.454 -7.047,2.322 -5.515,7.446 2.199,6.294 z m -15.003,-8.618 c 2.939,-11.458 -6.947,-8.718 -2.141,-0.545 -0.144,0.8 2.91,2.222 2.141,0.545 z m 31.194,-1.377 c 3.195,-2.504 2.13,-9.247 -0.152,-9.508 -2.981,0.878 -3.047,9.853 0.152,9.508 z"
             id="path9208" />
          <path
             style="fill:#ffffff;fill-opacity:0.0754717"
             d="m 134.057,-676.955 c -11.325,-7.129 -7.778,-21.258 -12.509,-31.817 -6.74,-7.982 4.803,-13.943 2.764,-22.144 4.703,-3.597 10.328,-9.383 15.984,-8.532 4.348,-4.932 17.733,2.483 4.826,-1.072 -5.363,3.55 -16.164,4.072 -18.802,12.089 0.309,7.996 -9.776,14.529 -2.019,22.636 2.731,9.646 2.567,22.954 9.756,28.84 z m 7.002,-23.279 c -3.662,-1.332 12.362,-0.924 7.327,-4.266 8.708,4.364 -4.791,4.406 -7.327,4.266 z m -6.803,-4.683 c 1.295,-5.993 14.931,-4.778 0,0 z m 12.031,-0.562 c -4.461,-2.541 2.242,0.521 0,0 z m 6.107,0 c -3.654,-8.255 4.969,-0.817 0,0 z m 3.081,-1.664 c -2.94,-0.862 -1.408,-10.379 0.08,-3.693 0.09,-5.583 3.332,-28.308 3.935,-10.294 -4.369,1.858 -0.183,15.983 -3.425,8.822 -1.164,-0.858 1.194,7.159 -0.587,5.165 z m -11.768,0.02 c -4.701,-4.187 13.12,1.22 1.593,-0.751 l -1.259,0.691 z m -14.573,-1.126 c -1.953,-5.675 -0.216,-14.99 1.014,-3.159 -0.859,0.874 1.691,4.412 -1.014,3.159 z m 30.907,-2.107 c 1.147,-3.233 2.502,-14.475 2.419,-5.993 2.662,1.421 0.373,7.326 -2.419,5.993 z m -24.257,-17.281 c 0.159,-0.925 2.386,0.767 0,0 z m 5.32,-1.782 c -0.719,-1.734 1.898,0.954 0,0 z m 13.01,-0.666 c -4.666,-2.701 2.732,0.583 0,0 z"
             id="path9252" />
          <path
             style="fill:#000000;fill-opacity:0.235849"
             d="m 135.106,-676.785 c -10.449,-4.39 10.409,-0.457 14.428,-7.048 11.709,-4.171 20.443,-11.827 17.269,-25.403 -0.02,-6.62 1.187,-13.662 -3.264,-19.287 7.997,8.015 4.117,19.867 4.514,29.817 1.412,12.159 -14.609,13.638 -22.237,19.409 -3.265,1.811 -6.921,3.123 -10.71,2.512 z m 0.957,-27.021 c -2.926,-6.341 12.564,-5.371 1.37,-1.16 -0.638,-0.1 -0.251,2.732 -1.37,1.16 z m 11.585,-1.155 c -6.702,-2.984 -6.582,-6.157 0,0 z m -16.547,-2.598 c -2.58,-6.52 -4.735,-15.076 -1.463,-21.699 4.909,0.383 8.331,-2.824 11.097,-2.937 -3.122,-10.241 26.314,7.873 10.305,0.224 -4.838,-0.165 -10.998,-4.997 -9.044,3.038 -3.821,-2.612 -6.077,2.397 -10.909,1.652 -3.217,5.871 0.185,15.191 0.01,19.722 z m -5.298,-3.437 c -6.048,-5.384 2.796,-11.885 -0.07,-6.666 -1.33,1.326 0.776,6.828 0.07,6.666 z m 31.559,-1.694 c -5.004,-6.183 6.344,-13.949 0.451,-4.516 -1.15,0.641 1.518,4.831 -0.451,4.516 z m 2.817,-19.385 c -5.535,-7.319 3.195,3.272 0,0 z"
             id="path9248" />
          <path
             style="fill:#ffffff;fill-opacity:0.122642"
             d="m 132.071,-682.092 c -3.529,-4.373 -3.191,-26.452 -2.103,-9.844 0.865,2.468 2.905,8.29 2.103,9.844 z m 1.518,-2.531 c -3.328,-11.898 2.768,3.727 0,0 z m 8.224,-5.49 c 2.066,-7.23 4.149,-10.903 1.308,-1.09 l -0.795,1.184 -0.513,-0.09 z m 9.431,-0.507 c -0.444,-6.974 1.067,-14.231 0.736,-2.553 -0.711,-0.585 0.534,3.355 -0.736,2.553 z m 5.715,-1.062 c -1.599,-9.599 1.94,-3.824 0,0 z m 1.782,-3.856 c 0.853,-11.148 0.8,10.225 0,0 z m -27.147,1.298 c -3.237,-7.947 2.166,-1.974 -0.03,1.155 z m 14.509,1.236 c -1.48,-8.586 1.713,-5.869 0,0 z m 2.3,0.01 c -0.06,-14.142 2.175,-4.102 0,0 z m 13.096,-4.573 c -0.933,-6.755 -2.064,-13.374 0.71,-2.77 0.773,4.322 -0.824,10.903 -0.71,2.77 z m -27.225,3.699 c -2.448,-5.835 1.456,-4.155 0,0 z m 19.422,-0.621 c -0.809,-9.373 2.09,3.101 0,0 z m -11.717,-1.79 c 1.385,-7.306 0.204,6.848 0,0 z m -2.18,1.506 c -2.464,-6.865 1.544,-4.068 0,0 z m -3.047,-0.869 c -2.269,-5.016 1.301,-3.3 0,0 z m -5.354,-5.077 c 4.278,-5.003 15.284,-11.438 3.855,-2.48 -1.328,0 -2.206,2.967 -3.855,2.48 z m 24.948,-0.719 c -7.196,-10.373 2.654,-1.266 0,0 z m -5.504,-3.031 c -15.182,-8.723 6.609,1.876 0,0 z m 15.3,0.393 c -0.51,-7.406 0.287,-16.29 0.762,-3.989 -0.585,0.926 1.043,3.823 -0.762,3.989 z m -42.028,-0.607 c -2.197,-7.814 1.72,-4.407 0,0 z m 0.178,-10.386 c 0.582,-9.923 3.968,-7.33 0,0 z m 42.233,-7.61 c -4.366,-6.378 3.155,1.567 0,0 z m -36.999,-5.207 c -3.805,-4.87 3.559,2.21 0,0 z m 3.741,-1.61 c -7.063,-7.207 2.024,-2.263 0,0 z m 28.973,-0.22 c -10.981,-2.704 2.822,-0.91 0,0 z m -23.321,-1.188 c -5.086,-4.178 -7.513,-6.609 -0.199,-1.803 3.49,-0.495 0.473,3.81 0.199,1.803 z m 2.031,-2.813 c -5.55,-7.309 1.431,-1.868 0,0 z m 13.394,-1.396 c -3.527,-8.656 3.012,2.506 0,0 z"
             id="path9360-9" />
          <path
             style="fill:#000000;fill-opacity:0.504717"
             d="m 132.486,-679.967 c -4.135,-8.97 -2.873,-27.742 1.2,-22.919 -6.116,4.145 -0.914,21.132 -1.2,22.919 z m 9.285,-2.862 c -2.245,-6.27 -2.697,-20.661 -0.737,-5.832 0.505,0.601 2.501,9.034 0.737,5.832 z m -3.339,-1.218 c -2.068,-6.407 -1.018,-18.24 -0.09,-4.826 -0.858,0.653 2.971,10.351 0.09,4.826 z m 5.962,1.52 c -1.859,-7.717 -1.976,-16.099 0.03,-3.695 -0.312,-0.303 1.157,4.483 -0.03,3.695 z m 5.347,-0.528 c -1.107,-8.219 -0.348,-13.867 0.59,-1.98 l -0.234,2.393 -0.357,-0.413 z m -2.664,-0.721 c -1.665,-7.738 0.819,-12.787 0.139,-1.91 0.04,0.61 1.778,4.23 -0.139,1.91 z m 4.498,-5.292 c 0.543,-12.848 0.508,12.671 0,0 z m 4.041,-0.835 c 0.542,-10.693 0.74,10.837 0,0 z m 2.074,-1.911 c -1.386,-7.465 -4.882,-15.386 0.18,-4.121 0.353,0.177 0.39,9.253 -0.18,4.121 z m 7.751,0.386 c -0.7,-6.719 -0.461,-18.453 0.341,-5.009 -1.498,-0.827 1.785,7.464 -0.341,5.009 z m 2.098,-3.87 c -1.436,-7.338 -0.453,-23.165 -0.121,-6.964 -0.905,0.905 2.114,8.501 0.121,6.964 z m -38.94,-0.3 c -2.013,-6.215 0.354,-15.222 0.04,-3.211 -0.388,0.16 1.559,5.088 -0.04,3.211 z m 14.561,-1.318 c -2.343,-7.456 1.675,0.402 0,0 z m 5.888,0.177 c -1.252,-8.244 1.659,-1.091 0,0 z m 2.812,-0.957 c -1.813,-10.601 2.249,3.99 0,0 z m -16.805,-1.11 c 3.056,-5.684 4.086,-1.747 0,0 z m 22.377,-1.321 c -4.463,-6.69 -0.153,-4.231 0.969,0.842 l -0.325,0.448 z m 3.37,0.739 c -5.545,-9.955 -1.746,-9.678 0,0 z m 3.352,-9.746 c -0.03,-5.745 0.586,-14.91 0.7,-3.585 0.473,1.904 -0.555,10.984 -0.7,3.585 z m -40.658,-3.502 c 0.758,-10.852 1.237,4.493 0,0 z m 43.161,-6.18 c -5.849,-10.342 4.515,5.643 0,0 z m -41.046,-2.3 c 4.166,-5.134 8.875,-4.451 0,0 z m 39.314,-4.197 c -6.283,-1.486 5.167,0.22 0,0 z m -37.11,-0.245 c 2.994,-3.211 4.748,-0.33 0,0 z m 4.871,-2.85 c -4.831,-5.055 0.965,-2.66 0.705,1.096 z m 3.781,-2.299 c -7.696,-7.974 3.835,1.934 0,0 z m 4.299,-2.025 c -6.964,-7.13 0.392,-4.007 0.698,1.423 z m 16.877,1.318 c 0.325,-6.653 2.852,-2.499 0,0 z m -9.095,-3.739 c -10.685,-4.69 -1.777,-4.873 1.327,1.281 z m 4.742,0.186 c -5.77,-6.15 1.447,-4.067 0.245,1.095 z"
             id="path9520-1" />
          <path
             style="fill:#284023;fill-opacity:1;stroke:none"
             d="m 89.8029,-653.825 c 2.6784,16.18 19.7331,-3.259 29.3291,-3.256 12.984,-6.733 27.842,-9.409 40.969,-16.328 9.467,-4.358 18.49,-9.579 27.666,-14.503 12.888,0.499 35.466,-4.211 28.588,-21.952 -3.07,-13.586 -20.894,-13.861 -30.34,-6.903 -11.954,5.196 -16.349,19.172 -27.83,24.432 -13.924,5.944 -25.717,15.518 -38.979,22.565 -9.589,5.531 -19.839,10.134 -29.4031,15.945 z"
             id="path9200" />
          <path
             style="fill:#445241;fill-opacity:1"
             d="m 90.0683,-652.537 c 2.2178,-8.262 16.8907,-10.726 24.1817,-15.517 12.671,-7.573 25.093,-15.507 37.942,-22.825 14.801,-3.767 19.876,-19.674 32.7,-26.555 12.001,-10.56 34.672,-4.452 32.591,13.686 -0.112,-13.342 -15.656,-19.864 -26.541,-13.833 -15.268,4.603 -20.539,22.002 -34.637,27.717 -13.309,6.304 -25.149,15.098 -37.919,22.303 -8.629,5.201 -18.33,8.661 -26.789,14.326 l -1.4411,0.783 -0.083,-0.09 z"
             id="path4662" />
          <path
             style="fill:#000000;fill-opacity:0.127358"
             d="m 93.8403,-646.767 c -12.0088,-10.934 12.9147,-12.069 18.9887,-16.897 16.047,-7.05 33.491,-11.348 48.895,-20.236 8.862,-3.655 16.398,-11.522 26.627,-10.443 14.38,1.176 27.996,-12.556 18.246,-26.261 17.273,5.047 13.159,32.962 -5.907,31.341 -7.27,0.649 -14.459,0.829 -20.455,5.491 -17.575,10.034 -36.367,17.897 -55.648,23.735 -9.845,5.164 -20.769,8.955 -30.7467,13.27 z"
             id="path4682-9" />
          <path
             style="fill:#445241;fill-opacity:1"
             d="m 98.3839,-656.014 c 0.8046,-5.03 25.3771,-11.232 10.4781,-4.706 -3.553,0.722 -7.18,4.666 -10.4781,4.706 z m 23.7651,-11.808 c 7.346,-8.723 19.918,-14.096 30.651,-19.032 5.661,-3.495 21.738,-6.242 6.661,-0.882 -13.479,4.446 -25.799,12.596 -37.312,19.914 z m 31.25,-21.72 c 3.646,-5.227 25.78,-7.789 7.855,-2.211 -2.526,0.409 -5.336,2.512 -7.855,2.211 z m 42.793,-3.855 c 7.292,-1.807 26.526,-11.686 9.136,-19.923 10.064,-1.466 12.554,18.284 -1.177,18.122 -2.611,0.714 -5.225,1.687 -7.959,1.801 z m -18.424,-10.976 c 4.886,-9.561 23.628,-19.466 33.357,-11.338 -12.59,-4.916 -24.419,3.372 -33.357,11.338 z m 17.231,-0.624 c -1.906,-4.985 8.319,-1.051 0,0 z"
             id="path4716-4" />
          <path
             style="fill:#20341c;fill-opacity:1"
             d="m 120.125,-661.975 c 8.888,-8.177 23.498,-10.551 35.511,-14.297 8.056,-2.259 22.692,-17.451 27.156,-11.855 -13.714,1.734 -22.975,16.282 -37.708,16.524 -8.731,1.058 -16.668,7.456 -24.959,9.628 z m 7.906,-8.811 c 9.35,-8.071 25.392,-8.645 36.779,-15.315 2.492,3.332 -18.131,8.313 -24.236,10.467 -4.208,1.222 -8.344,4.299 -12.543,4.848 z m 12.792,-11.492 c 4.229,-4.671 21.166,-10.619 26.831,-9.121 -9.179,2.313 -18.046,5.888 -26.831,9.121 z m 31.941,-12.605 c 8.598,-6.586 24.287,-23.637 34.562,-8.954 3.288,9.967 -21.301,9.77 -3.874,5.393 8.064,-11.955 -16.773,-12.089 -20.196,-2.217 -3.282,1.761 -6.71,5.862 -10.492,5.778 z m 40.639,-8.988 c -1.993,-11.052 -15.509,-9.049 -21.187,-9.125 7.537,-5.277 24.046,0.531 21.187,9.125 z"
             id="path4748-8" />
          <path
             style="fill:#135f23;fill-opacity:1"
             d="m 117.356,-529.286 c -4.714,-9.47 8.301,-8.598 10.794,-14.707 0.238,-5.252 7.497,-7.971 6.368,-9.08 7.372,1.662 -0.133,-1.768 4.001,-5.036 -7.088,-0.963 2.958,-7.705 -7,-4.232 4.046,9.478 -3.316,0.541 -4.732,7.892 0.549,-2.951 -5.683,-9.659 -9.45,-4.884 0.551,0.985 9.25,1.703 1.555,5.117 2.096,9.932 -3.663,-3.61 -5.923,2.897 -4.326,-5.73 10.541,-9.704 -3.014,-8.95 -12.2992,-1.875 4.288,9.359 -1.857,12.768 -1.465,-7.228 -8.4553,5.827 -5.219,-4.108 -6.5831,-3.507 0.799,-5.431 2.006,-3.403 -1.855,-4.87 -2.879,-1.988 -2.099,-5.761 -6.1645,7.432 -3.0596,-6.397 -3.6085,-6.448 4.4455,6.538 5.9795,-6.678 7.7025,4.067 3.058,3.244 11.906,1.909 16.91,0.04 6.605,2.185 17.626,-5.697 6.159,-0.622 -10.343,-3.978 2.679,-4.529 -2.113,-5.934 -1.752,-1.677 -12.104,-6.033 -7.858,-1.552 11.741,0.736 -6.995,12.302 -6.187,1.516 12.62,1.5 -9.602,-11.737 -3.807,0.377 -1.867,4.807 -6.151,-4.052 -9.016,-1.493 7.685,-2.927 0.361,-7.296 -4.5406,-9.3 -11.9173,-2.857 -1.0406,-3.249 4.3476,0.561 4.752,-2.916 -2.4601,-8.255 2.679,-11.44 -4.4754,-7.435 4.285,0.727 5.733,-3.901 -0.644,6.647 2.761,7.83 8.74,11.528 2.69,3.374 12.924,16.428 8.937,4.467 0.276,-3.78 -8.974,3.484 -3.073,-4.707 -4.414,-8.607 4.352,1.649 5.057,-4.792 2.948,4.04 -3.914,14.243 1.9,16.412 2.056,5.15 13.933,5.091 6.676,-0.368 -7.801,2.632 -5.779,-5.829 -3.073,-4.825 0.332,-7.82 4.808,2.171 8.259,1.918 -8.586,1.335 2.708,9.501 -0.44,1.211 3.627,4.917 3.281,2.89 6.87,2.854 -1.499,7.088 2.764,6.15 8.756,7.929 5.834,0.683 16.125,5.444 18.862,-1.614 3.398,-1.338 2.107,-9.31 5.195,-0.31 6.306,-7.234 0.97,4.311 2.661,4.486 5.629,6.902 8.021,-7.411 11.339,-1.119 -5.072,2.734 8.007,7.001 -2.242,5.251 -4.474,7.045 -3.382,-3.278 -10.64,-3.389 -8.191,-1.154 -16.706,0.513 -24.911,-1.659 -0.05,4.694 3.052,7.53 7.335,6.662 -0.529,-12.677 6.082,6.48 9.527,-2.167 2.915,5.244 7.188,-6.908 5.661,2.574 9.331,3.551 -8.076,4.431 3.892,8.194 4.919,0.675 13.014,-1.909 9.115,-7.267 0.701,3.474 15.427,5.924 6.547,5.186 -3.195,-2.327 -13.029,3.827 -9.327,5.061 6.05,-3.341 0.458,9.683 -0.425,7.723 -1.703,-7.021 -7.171,5.124 -5.399,-5.748 8.884,-2.944 -2.396,-4.204 -4.229,-5.144 2.677,10.23 -0.664,-3.541 -6.157,-1.469 -7.565,-2.539 10.209,4.725 1.346,5.259 -2.69,-2.609 -4.425,9.083 -4.78,-0.541 -10.614,-0.711 6.064,-6.898 -4.27,-5.429 -4.665,2.7 -4.33,13.198 -5.659,14.467 -2.399,-5.453 6.498,-18.348 -3.239,-12.653 -1.207,-4.143 6.267,-5.006 -0.873,-6.245 1.96,-5.304 -9.16,4.221 -10.319,2.409 6.088,3.074 4.53,9.58 0.61,6.676 -2.029,8.43 -5.532,-3.525 -5.978,-4.798 10.868,0.767 -1.678,-8.361 -1.523,1.894 -9.502,5.741 -2.26,-5.086 -6.322,-1.888 -5.953,0.687 -3.448,10.293 -10.63,10.801 -6.099,1.326 -3.673,5.577 -5.607,8.786 z m 61.101,-20.243 c -0.528,-2.618 -11.13,-7.445 -8.423,-0.901 2.475,-0.109 6.798,2.463 8.423,0.901 z m -37.002,-4.962 c 0.897,-3.73 -3.285,2.156 0,0 z m 9.053,-0.708 c 3.569,-6.794 -3.602,1.082 0,0 z m -3.69,-1.411 c -0.252,-1.696 -1.034,1.213 0,0 z m 1.746,-2.12 c 0.209,-1.188 -1.177,1.805 0,0 z m -4.688,-0.508 c -0.256,-0.984 -0.55,0.577 0,0 z m 8.115,-0.114 c 5.332,-5.159 -5.098,-5.034 -0.456,-2.046 -4.89,0.839 -2.747,1.584 0.456,2.046 z m 28.535,-2.611 c -2.616,-0.252 -0.518,0.419 0,0 z m -53.045,-0.1 c -1.938,-0.73 -1.757,0.529 0,0 z m 21.257,-1.674 c 1.644,-0.891 -2.553,0.619 0,0 z m -4.454,-2.15 c -0.03,-1.631 -1.793,0.772 0,0 z m -15.826,-5.13 c -7.191,-4.916 -11.348,-13.49 -19.815,-16.562 -6.28,-3.88 -3.496,9.057 -1.292,0.441 9.631,6.325 -12.0894,9.501 2.296,11.409 6.197,1.063 13.23,0.587 18.557,4.811 l 0.254,-0.09 z m 42.353,8.366 c -2.107,-7.325 -8.457,2.439 -5.729,-7.078 -4.49,-5.104 -5.739,11.785 -8.378,0.755 -10.051,-1.33 6.946,-4.018 -3.543,-4.431 -8.446,0.588 -2.832,-4.283 -3.155,-5.159 -1.974,-7.74 5.223,1.19 8.528,-0.612 -7.597,7.927 0.377,0.489 3.961,7.057 2.683,1.616 13.021,-0.05 11.3,-3.654 0.767,-3.95 -10.864,-6.007 -3.821,-8.472 2.433,2.714 5.62,-8.179 4.847,1.151 9.463,1.978 -6.011,5.364 2.006,7.569 4.96,-0.153 13.757,-10.844 13.734,-4.452 -2.001,2.945 6.308,5.142 -1.791,5.013 -5.736,7.748 -2.289,-7.417 -9.863,-0.266 -5.131,3.528 -14.451,4.809 -4.347,5.064 -1.801,3.07 -4.83,4.54 -3.749,7.515 z m -60.186,-152.037 c 0.695,0.124 10.472,-9.122 4.732,-6.276 -4.749,4.82 -2.551,-5.093 -4.526,-7.109 5.635,6.072 13.723,-6.969 6.223,0.361 -4.3,1.051 -1.372,-7.391 -4.732,-7.629 6.336,3.505 5.245,-7.055 9.302,1.275 -2.828,6.832 14.406,2.79 1.08,1.048 -1.52,-1.114 14.465,1.599 5.225,-0.191 -8.946,-0.98 -1.195,-4.388 -2.298,-5.518 -1.307,-6.989 5.811,1.497 8.445,0.588 -12.022,4.014 8.733,7.189 1.244,2.174 0.555,-6.509 1.856,-10.082 3.862,-2.395 4.403,-4.934 1.802,-7.944 5.187,-2.752 4.489,5.352 5.434,-8.436 6.504,1.62 3.408,-0.375 6.37,-7.944 3.532,-0.06 2.078,4.497 12.285,1.289 3.032,5.925 4.413,4.123 13.88,5.863 4.226,0.461 1.208,-10.388 3.133,1.455 8.481,-4.476 -2.058,2.16 -1.763,12.045 4.187,6.721 -1.932,4.29 1.378,11.743 -2.204,10.192 -1.502,-9.256 -5.166,5.521 -6.154,-5.543 1.315,-8.165 -4.65,10.288 -3.514,-1.575 -1.74,-4.193 -8.966,-2.486 -10.323,-4.515 2.616,9.121 -3.661,2.921 -4.136,4.373 -7.63,4.13 2.099,-6.234 -7.915,-5.269 -2.792,-2.166 -0.506,6.914 -4.969,3.689 2.868,11.355 -6.903,-5.881 -8.936,5.464 -6.589,0.749 -9.592,8.758 -15.555,9.417 z m 9.847,-8.21 c 9.976,-1.793 5.357,-10.628 -1.525,-3.665 -0.194,0.466 1.361,3.35 1.525,3.665 z m 29.728,-10.624 c 8.607,-3.495 -9.26,-1.917 0,0 z m -6.028,-1.612 c -0.684,-7.854 -1.694,-4.291 0,0 z"
             id="path5452" />
          <path
             style="fill:#000000;fill-opacity:0.0801887;stroke:none"
             d="m 95.646,-646.759 c -0.5036,16.273 18.389,-1.513 14.578,-0.866 -3.067,4.175 -14.3832,3.004 -7.465,-2.723 -2.497,0.933 -4.7559,2.368 -7.113,3.589 z"
             id="path5454" />
          <path
             style="fill:#ffffff;fill-opacity:0.509434;stroke:none"
             d="m 140.417,-720.493 c -8.375,-5.55 -7.564,6.792 0,0 z"
             id="path5456-6" />
          <ellipse
             transform="matrix(0.102798,0,0,0.10009,-575.128,-322.766)"
             style="fill:#502d16;fill-opacity:1;fill-rule:evenodd;stroke:none"
             id="path5458-0"
             cx="6928.66"
             cy="-3970.76"
             rx="14.5536"
             ry="14.0179" />
          <ellipse
             style="fill:#000000;fill-opacity:0.509434;fill-rule:evenodd;stroke:none"
             id="path5460-3"
             transform="matrix(0.102798,0,0,0.10009,-575.154,-322.791)"
             cx="6928.89"
             cy="-3970.56"
             rx="10.3541"
             ry="10.796" />
          <ellipse
             transform="matrix(0.102798,0,0,0.10009,-575.128,-322.766)"
             style="fill:#ffffff;fill-opacity:0.509434;fill-rule:evenodd;stroke:none"
             id="path5462-8"
             cx="6925.54"
             cy="-3973.78"
             rx="2.84105"
             ry="3.15673" />
          <path
             style="fill:#000000;fill-opacity:0.179245;stroke:none"
             d="m 133.753,-720.332 c 4.296,-4.815 9.773,2.704 2.791,3.825 8.64,-0.324 1.881,-10.448 -2.791,-3.825 z"
             id="path5464-01" />
          <path
             style="fill:#000000;stroke:none"
             d="m 140.509,-720.511 c -5.99,-2.147 -10.638,-0.626 0,0 z"
             id="path5466-2" />
          <path
             style="fill:#2e0901;fill-opacity:1;stroke:none"
             d="m 131.59,-725.138 c 3.661,1.269 13.037,2.562 6.052,-0.07 -2.382,-1.222 -3.815,1.59 -6.078,-0.613 -0.224,0.07 1.466,1.456 0.03,0.683 z"
             id="path5468-50" />
          <path
             style="fill:#ffffff;fill-opacity:0.509434;stroke:none"
             d="m 146.858,-720.4 c 8.375,-5.551 7.564,6.792 0,0 z"
             id="path5456-0-94" />
          <ellipse
             transform="matrix(-0.102798,0,0,0.10009,862.403,-322.673)"
             style="fill:#502d16;fill-opacity:1;fill-rule:evenodd;stroke:none"
             id="path5458-1-7"
             cx="6928.66"
             cy="-3970.76"
             rx="14.5536"
             ry="14.0179" />
          <ellipse
             style="fill:#000000;fill-opacity:0.509434;fill-rule:evenodd;stroke:none"
             id="path5460-4-83"
             transform="matrix(-0.102798,0,0,0.10009,862.428,-322.699)"
             cx="6928.89"
             cy="-3970.56"
             rx="10.3541"
             ry="10.796" />
          <ellipse
             transform="matrix(-0.102798,0,0,0.10009,862.403,-322.673)"
             style="fill:#ffffff;fill-opacity:0.509434;fill-rule:evenodd;stroke:none"
             id="path5462-6-5"
             cx="6925.54"
             cy="-3973.78"
             rx="2.84105"
             ry="3.15673" />
          <path
             style="fill:#000000;fill-opacity:0.179245;stroke:none"
             d="m 153.521,-720.239 c -4.295,-4.816 -9.772,2.703 -2.79,3.824 -8.64,-0.323 -1.882,-10.448 2.79,-3.824 z"
             id="path5464-0-1" />
          <path
             style="fill:#000000;stroke:none"
             d="m 146.766,-720.418 c 5.99,-2.147 10.637,-0.626 0,0 z"
             id="path5466-7-20" />
          <path
             style="fill:#2e0901;fill-opacity:1;stroke:none"
             d="m 154.438,-725.578 c -3.462,1.696 -12.618,4.111 -6.012,0.656 2.21,-1.497 3.984,1.121 5.952,-1.337 0.233,0.04 -1.272,1.623 0.06,0.681 z"
             id="path5468-1-1" />
          <path
             style="fill:#000000;fill-opacity:0.0849056;stroke:none"
             d="m 143.854,-720.239 c 1.599,5.077 1.809,16.808 4.007,7.828 -8.398,-7.902 3.931,-8.558 4.836,-9.386 -1.868,-4.267 -6.995,-0.977 -8.843,1.558 z"
             id="path5596-6" />
          <path
             style="fill:#ffc7a1;fill-opacity:1;stroke:none"
             d="m 137.441,-702.706 c 5.573,0.742 17.27,-1.778 6.427,2.699 -2.434,0.295 -4.824,-0.942 -6.427,-2.699 z"
             id="path5634-6" />
          <path
             style="fill:#390000;fill-opacity:0.108491;stroke:none"
             d="m 137.421,-703.099 c 6.047,-1.233 17.076,0 5.176,-2.288 -1.776,-0.511 -5.211,0.486 -5.176,2.288 z"
             id="path5661" />
          <path
             id="path24838-3-5-4"
             d="m 178.828,-392.649 c -6.348,-8.652 2.556,1.32 1.297,-2.155 2.746,-6.728 3.318,-4.757 1.917,1.002 2.296,4.693 4.881,-9.339 3.81,-1.313 1.375,7.173 3.393,-8.85 3.78,2.62 4.409,-2.712 1.568,-9.169 3.511,-0.925 2.603,0.868 5.822,-10.237 3.62,-0.152 2.529,3.659 5.939,-8.461 4.548,1.144 2.435,-0.03 3.157,-4.94 2.924,3.047 -2.974,-0.327 -5.922,-3.011 -9.261,-2.106 -0.946,1.294 -6.186,0.642 -6.854,-0.7 -4.834,1.502 -4.832,1.805 -8.062,0.341 l -0.682,-0.445 z"
             style="fill:#22662e;fill-opacity:1;stroke:#000000;stroke-width:3.0134px;stroke-linecap:butt;stroke-linejoin:miter;stroke-opacity:0" />
          <path
             id="path24838-3-5-4-1"
             d="m 166.295,-392.234 c -6.348,-8.653 2.557,1.321 1.296,-2.156 2.748,-6.727 3.318,-4.758 1.918,1.002 2.295,4.693 4.881,-9.339 3.809,-1.313 1.375,7.174 3.393,-8.851 3.781,2.621 4.409,-2.712 1.566,-9.169 3.51,-0.926 2.6,0.873 5.826,-10.238 3.62,-0.152 2.53,3.662 5.939,-8.463 4.549,1.145 2.436,-0.03 3.155,-4.938 2.923,3.047 -2.974,-0.329 -5.921,-3.01 -9.261,-2.106 -0.945,1.292 -6.186,0.644 -6.854,-0.7 -4.834,1.502 -4.83,1.805 -8.062,0.341 l -0.681,-0.445 z"
             style="fill:#1c5225;fill-opacity:1;stroke:#000000;stroke-width:3.0134px;stroke-linecap:butt;stroke-linejoin:miter;stroke-opacity:0" />
          <path
             id="path24838-3-5-4-4"
             d="m 187.946,-393.285 c -3.421,-8.891 1.781,4.309 1.701,-4.257 1.743,-8.351 -1.17,9.12 1.761,2.356 0.964,-8.44 0.462,6.371 1.904,-0.485 -0.09,-5.578 2.168,7.711 2.34,-1.334 -0.306,-5.568 1.079,11.128 2.653,-0.572 0.934,-3.595 -0.268,10.873 2.455,1.106 0.703,-1.308 0.117,8.78 1.967,0.611 0.974,6.678 -1.23,5.469 -3.744,3.838 -2.423,0.309 -2.018,0.602 -4.599,0.23 -1.745,-1.438 -4.123,1.492 -5.487,-0.506 l -0.565,-0.587 z"
             style="fill:#1c5526;fill-opacity:1;stroke:#000000;stroke-width:2.22102px;stroke-linecap:butt;stroke-linejoin:miter;stroke-opacity:0" />
          <path
             id="path24838-3-5-4-4-9"
             d="m 86.3513,-403.013 c -3.4217,-8.89 1.7817,4.31 1.7006,-4.256 1.743,-8.35 -1.1701,9.117 1.7608,2.356 0.9641,-8.442 0.4613,6.37 1.9041,-0.485 -0.086,-5.579 2.1676,7.71 2.3405,-1.334 -0.3064,-5.569 1.0784,11.128 2.6528,-0.572 0.9333,-3.594 -0.2681,10.873 2.455,1.105 0.7028,-1.304 0.1172,8.779 1.9669,0.611 0.974,6.678 -1.2302,5.469 -3.7448,3.838 -2.421,0.308 -2.0176,0.603 -4.5978,0.231 -1.7457,-1.438 -4.124,1.492 -5.487,-0.506 l -0.5649,-0.587 z"
             style="fill:#1c5526;fill-opacity:1;stroke:#000000;stroke-width:2.22102px;stroke-linecap:butt;stroke-linejoin:miter;stroke-opacity:0" />
          <path
             id="path24838-3-5-4-4-8"
             d="m 91.4698,-402.406 c -3.4213,-8.892 1.7818,4.311 1.7006,-4.257 1.7432,-8.351 -1.1702,9.118 1.7608,2.357 0.9635,-8.442 0.462,6.371 1.9041,-0.486 -0.086,-5.578 2.1673,7.711 2.3405,-1.333 -0.3064,-5.568 1.0782,11.128 2.6532,-0.573 0.932,-3.591 -0.268,10.872 2.454,1.106 0.705,-1.308 0.116,8.781 1.967,0.611 0.974,6.679 -1.23,5.467 -3.744,3.838 -2.421,0.309 -2.019,0.602 -4.5979,0.23 -1.7449,-1.437 -4.1249,1.491 -5.4872,-0.505 l -0.5649,-0.587 z"
             style="fill:#1c5526;fill-opacity:1;stroke:#000000;stroke-width:2.22102px;stroke-linecap:butt;stroke-linejoin:miter;stroke-opacity:0" />
        </g>
      </g>
    </g>
  </g>
</svg>
