<?xml version="1.0" encoding="UTF-8" standalone="no"?>
<svg
   width="191.63779"
   height="103.89429"
   version="1.1"
   id="svg29"
   xmlns="http://www.w3.org/2000/svg"
   xmlns:svg="http://www.w3.org/2000/svg">
  <defs
     id="defs1">
    <path
       id="b"
       fill="#f6e078"
       d="m-644.32223 561.76862-.0312.0312h-.0312c-13.36934 1.25678-28.84217 2.62778-42.34375 5.03125-1.90913 2.98168-2.06747 5.70075 1.40625 7.875 12.96265-2.30753 28.24596-3.71121 41.625-4.96875 18.14491-1.37417 36.43964-2.23317 54.6875-2.4688h35c10.91556 0 33.96831.8703 54.6875 2.5 20.62477 1.62227 41.6875 4.9375 41.6875 4.9375 3.59435-2.39802 3.20392-5.08067 1.25-7.875 0 0-21.25757-3.40639-42.3125-5.0625-20.96041-1.64868-43.98416-2.5-55.3125-2.5h-35c-18.46448.0721-36.90054 1.20996-55.3126 2.5001z"
       overflow="visible"
       style="text-indent:0;text-align:start;line-height:normal;text-transform:none;block-progression:tb;marker:none;-inkscape-font-specification:Bitstream Vera Sans" />
    <path
       id="c"
       fill="#f8eca8"
       d="M-454.92903 569.95629c.10745-1.31971-.47864-1.7281-1.4556-3.12527 0 0-21.25757-3.40639-42.3125-5.0625-20.96041-1.64868-43.98416-2.5-55.3125-2.5h-35c-18.46448.0721-36.90054 1.20996-55.3126 2.5001l-.0312.0312h-.0312c-13.36934 1.25678-28.84217 2.62778-42.34375 5.03125-.95457 1.49084-1.47143 1.6349-1.31544 2.95916 15.61395-1.89703 28.80702-4.05063 43.91525-5.23163 23.98015-1.87451 49.50789-2.23512 72.35649-2.3283 22.78284-.0929 45.0466.69285 66.87797 2.34356 16.90077 1.27789 33.54239 3.07416 49.96508 5.38243z"
       overflow="visible"
       style="text-indent:0;text-align:start;line-height:normal;text-transform:none;block-progression:tb;marker:none;-inkscape-font-specification:Bitstream Vera Sans" />
    <path
       id="d"
       fill="#d1b948"
       d="M-687.27466 572.9792c.44377.60668 1.08484 1.18377 1.95253 1.72687 12.96265-2.30753 28.24596-3.71121 41.625-4.96875 18.14491-1.37417 36.43964-2.23317 54.6875-2.4688h35c10.91556 0 33.96831.8703 54.6875 2.5 20.62477 1.62227 41.6875 4.9375 41.6875 4.9375 1.12714-.75199 1.45291-1.1907 1.87102-1.99333-39.88861-7.11356-76.13007-7.82574-114.389-8.18008-37.26743-.34515-79.25667 1.89738-117.1221 8.44659h.00005z"
       overflow="visible"
       style="text-indent:0;text-align:start;line-height:normal;text-transform:none;block-progression:tb;marker:none;-inkscape-font-specification:Bitstream Vera Sans" />
  </defs>
  <g
     transform="translate(-1138.22385 -774.30364)"
     id="g29">
    <g
       id="use1"
       stroke-dasharray="none"
       stroke-miterlimit="4"
       stroke-width="1"
       transform="matrix(-1.13819,0,0,1.13819,2638.61,-114.216)">
      <g
         transform="rotate(-16.778,1156.95,840.131)"
         id="g33">
        <path
           fill="#d1b948"
           stroke="#806600"
           d="m 1163.07,803.278 v 48.668 h 0.95 c -0.1,-2.459 1.67,-11.628 4.17,-11.585 2.14,0.254 4.25,2.285 6.5,2.557 l -0.89,-4.886 c -0.15,-0.541 0,-1.142 0.46,-1.474 l 10.35,-8.791 -2.14,-1.048 c -0.94,-0.352 -0.66,-0.896 -0.33,-2.231 l 1.56,-5.997 -6,1.3 c -0.59,0.09 -1,-0.288 -1.09,-0.659 l -0.75,-2.834 -4.76,5.57 c -0.67,0.89 -2.04,0.894 -1.61,-1.165 l 2.02,-11.274 -2.72,1.475 c -0.76,0.445 -1.53,0.526 -1.96,-0.272 z"
           id="path29" />
        <path
           fill="#e5c947"
           d="m 1165.03,843.475 c 0.6,-1.144 1.29,-2.222 2.24,-3.123 1.77,-0.469 3.21,0.809 4.81,1.285 -0.17,-1.496 -1.39,-3.484 -0.51,-4.486 l 9.29,-8.613 c -0.92,-0.275 -2.12,-0.191 -1.53,-2.458 l 0.88,-4.507 -4.44,0.91 c -0.89,0.162 -1.16,-1.212 -1.43,-2.553 l -3.1,3.979 c -1.09,1.216 -3.91,1.519 -3.43,-1.259 l 1.4,-8.961 -2.89,1.869 -2.93,-7.258 -0.56,35.864 z"
           id="path30" />
        <path
           fill="#e7cd53"
           d="m 1178.36,824.226 -9.6,14.087 c -0.47,0.792 -2.87,1.083 -3.39,4.83 l -1.76,0.812 -0.56,-34.243 3.68,23.086 11.31,-8.979 c 0.32,-0.32 0.56,-0.02 0.32,0.407 z"
           id="path31" />
        <path
           fill="#f6e078"
           d="m 1163.07,811.544 v 34.619 l 1.34,-0.369 0.99,-6.384 12.96,-15.582 -12.91,12.07 z"
           id="path32" />
        <path
           fill="none"
           stroke="#806600"
           stroke-width="0.999835"
           d="m 1163.07,803.278 v 48.668 h 0.95 c -0.1,-2.459 1.67,-11.628 4.17,-11.585 2.14,0.254 4.25,2.285 6.5,2.557 l -0.89,-4.886 c -0.15,-0.541 0,-1.142 0.46,-1.474 l 10.35,-8.791 -2.14,-1.048 c -0.94,-0.352 -0.66,-0.896 -0.33,-2.231 l 1.56,-5.997 -6,1.3 c -0.59,0.09 -1,-0.288 -1.09,-0.659 l -0.75,-2.834 -4.76,5.57 c -0.67,0.89 -2.04,0.894 -1.61,-1.165 l 2.02,-11.274 -2.72,1.475 c -0.76,0.445 -1.53,0.526 -1.96,-0.272 z"
           id="path33" />
      </g>
      <g
         stroke="#9c6000"
         stroke-width="1.18821"
         transform="matrix(-0.67275,-0.27814,-0.24805,0.71069,1568.7,756.132)"
         id="g37">
        <path
           fill="#d1b948"
           stroke="#806608"
           stroke-width="1.35174"
           d="m 451.314,307.938 c -3.994,-2.04 -5.077,-16.09 -5.736,-21.891 -0.459,-4.039 -3.546,-5.798 -4.49,-9.795 -0.484,-2.052 -1.491,-4.834 0,-6.325 0.674,-0.674 2.337,-0.825 3.265,-0.613 1.988,0.454 4.082,2.041 4.082,2.041 0,0 -1.687,-4.98 -1.837,-8.162 -0.121,-2.559 0.124,-5.648 2.041,-7.347 1.53,-1.356 2.881,-1.56 4.693,-0.612 1.054,0.552 1.837,2.041 1.837,2.041 0,0 0.52,-5.453 1.836,-8.367 1.173,-2.595 2.46,-5.426 5.306,-5.305 1.441,0.06 2.371,1.793 3.061,3.06 0.93,1.712 0.408,4.286 0.408,4.286 0,0 2.056,-5.664 4.897,-7.346 2.757,-1.633 6.439,-3.009 8.775,-0.817 1.438,1.35 0.767,3.285 0,5.102 -1.366,3.235 -6.326,7.346 -6.326,7.346 0,0 3.326,-0.652 4.897,-0.204 1.978,0.564 4.562,1.485 5.102,3.469 0.375,1.38 -0.431,3.613 -1.837,3.877 -3.659,0.688 -10.37,1.832 -9.386,3.061 0,0 3.108,0 4.489,0.816 1.33,0.781 3.089,1.928 3.061,3.469 -0.04,1.877 -0.958,4.529 -4.489,5.306 -2.857,0.629 -6.122,-0.174 -9.591,2.041 0,0 4.324,0.14 5.713,1.428 1.049,0.973 2.15,2.482 1.837,3.877 -0.539,2.405 -4.169,3.502 -6.326,4.694 -2.636,1.456 -5.456,1.182 -7.958,2.857 -2.766,1.85 -4.593,4.844 -6.53,7.55 -1.881,2.627 -0.794,10.463 -0.794,10.463 z"
           id="path34" />
        <path
           fill="#e5c947"
           stroke="none"
           d="m 477.031,243.562 c -0.417,-0.08 -0.904,-0.04 -1.5,0.06 -1.191,0.21 -2.608,0.844 -3.875,1.594 -0.794,0.47 -2.01,2.065 -2.812,3.562 -0.803,1.497 -1.282,2.813 -1.282,2.813 a 1.89033,1.89033 0 0 1 -3.625,-1.032 c 0,0 0.19,-2.248 -0.218,-3 -0.347,-0.637 -0.707,-1.297 -1.032,-1.687 -0.324,-0.39 -0.486,-0.407 -0.468,-0.406 -0.784,-0.03 -1.121,0.231 -1.719,0.968 -0.598,0.738 -1.196,1.955 -1.781,3.25 -1.03,2.28 -1.688,7.782 -1.688,7.782 a 1.89033,1.89033 0 0 1 -3.562,0.656 c 0,0 -0.112,-0.24 -0.344,-0.563 -0.232,-0.322 -0.592,-0.622 -0.656,-0.656 -0.68,-0.355 -1.053,-0.415 -1.344,-0.375 -0.291,0.04 -0.658,0.194 -1.25,0.719 -1.124,0.996 -1.518,3.472 -1.406,5.844 0.123,2.607 1.75,7.656 1.75,7.656 a 1.89033,1.89033 0 0 1 -2.907,2.094 c 0,0 -2.032,-1.381 -3.375,-1.688 -0.124,-0.03 -0.617,-0.06 -1,0 -0.382,0.06 -0.654,0.28 -0.5,0.125 -0.181,0.182 -0.315,0.532 -0.218,1.406 0.1,0.875 0.453,2 0.718,3.125 0.404,1.711 1.116,2.961 1.969,4.407 0.853,1.446 1.84,3.096 2.469,5.343 0.988,3.531 1.369,8.483 1.562,12.688 0.02,0.413 -0.01,0.355 0,0.75 0.558,-0.923 1.114,-1.91 1.625,-2.625 1.883,-2.63 3.777,-5.843 7,-8 1.563,-1.045 3.186,-1.447 4.563,-1.781 1.377,-0.334 2.536,-0.621 3.562,-1.188 1.26,-0.696 2.677,-1.254 3.75,-1.875 1.074,-0.62 1.573,-1.188 1.657,-1.562 0.02,-0.09 0.01,-0.36 -0.219,-0.782 -0.231,-0.421 -0.652,-0.931 -1.063,-1.312 0,0 -1.279,-0.541 -2.406,-0.719 -1.127,-0.178 -2.094,-0.219 -2.094,-0.219 a 1.89033,1.89033 0 0 1 -0.968,-3.468 c 4.099,-2.617 7.991,-1.791 10.218,-2.282 1.357,-0.298 1.961,-0.854 2.375,-1.468 0.415,-0.615 0.614,-1.38 0.625,-2.032 10e-4,-0.06 -0.05,-0.245 -0.437,-0.625 -0.392,-0.379 -1.062,-0.82 -1.688,-1.187 -0.155,-0.09 -1.155,-0.378 -2,-0.469 -0.844,-0.09 -1.531,-0.09 -1.531,-0.09 a 1.89033,1.89033 0 0 1 -1.469,-0.688 c -0.494,-0.618 -0.574,-2.003 -0.156,-2.656 0.418,-0.653 0.867,-0.874 1.281,-1.094 0.829,-0.441 1.746,-0.721 2.813,-1 2.134,-0.559 4.751,-1.003 6.562,-1.344 -0.181,0.03 0.01,-0.04 0.188,-0.437 0.175,-0.403 0.217,-0.987 0.187,-1.094 -0.09,-0.329 -0.407,-0.714 -1.125,-1.125 -0.717,-0.411 -1.751,-0.764 -2.687,-1.031 -0.22,-0.06 -1.373,-0.09 -2.313,0 -0.939,0.09 -1.718,0.219 -1.718,0.219 a 1.89033,1.89033 0 0 1 -1.563,-3.313 c 0,0 1.164,-0.953 2.5,-2.312 1.336,-1.36 2.805,-3.185 3.281,-4.313 0.368,-0.87 0.641,-1.661 0.688,-2.156 0.05,-0.495 0.07,-0.545 -0.219,-0.813 -0.334,-0.314 -0.708,-0.509 -1.125,-0.593 z"
           id="path35" />
        <path
           fill="#dac049"
           stroke="none"
           d="m 497.959,922.266 c -0.124,0 -3.392,2.846 -3.49,2.921 l -9.844,7.375 -1.219,-4.593 c -0.132,-0.463 -0.194,-3.345 -0.426,-2.922 -1.406,2.637 -1.578,7.782 -1.386,10.047 0.179,2.116 0.07,4.24 -1.938,7 l -6,-5.844 c -0.395,-0.388 -1.315,-1.842 -1.116,-1.325 1.795,4.392 6.668,11.18 2.71,20.512 -1.062,-0.02 -2.242,-0.631 -3.5,-1.656 -1.386,-1.128 -2.791,-2.622 -4.281,-3.719 -2.465,-2.224 -2.954,-1.902 -0.875,0.844 0,0 1.636,2.274 3.312,5 0.839,1.363 1.691,2.834 2.344,4.188 0.653,1.354 1.114,2.619 1.187,3.406 0.112,1.2 -0.327,3.212 -0.812,4.875 -0.485,1.663 -1,3 -1,3 l 0.195,7.432 0.961,-7.057 c 0,0 0.564,-1.978 1.5,-4.281 0.936,-2.304 2.299,-4.914 3.625,-6.032 1.255,-1.056 3.912,-1.904 6.219,-2.406 2.307,-0.501 4.25,-0.719 4.25,-0.719 0.534,-0.1 3.03,-0.798 2.51,-0.954 l -9.791,-1.733 c 0.192,-2.243 0.781,-3.868 1.687,-5 0.982,-1.227 2.275,-1.994 3.75,-2.531 2.95,-1.074 6.49,-1.12 8.844,-2.5 0.422,-0.259 2.134,-0.344 1.646,-0.426 L 485,943.094 c -0.272,-1.214 -0.1,-2.085 0.469,-2.813 0.624,-0.803 1.695,-1.467 3,-2 2.609,-1.065 5.963,-1.573 7.906,-2.687 0.485,-0.249 3.293,-1.158 2.748,-1.157 l -10.186,-0.343 6.375,-8.032 c 0.299,-0.362 3.116,-3.817 2.647,-3.796 z"
           transform="translate(-22.132,-675.75)"
           id="path36" />
        <path
           fill="#d1b948"
           stroke="none"
           d="m 468.5,254 -5.969,4.469 a 0.746312,0.746312 0 0 1 -1.156,-0.407 l -0.719,-2.843 c -0.115,1.273 0.06,2.541 0.188,4 0.202,2.39 0.03,5.217 -2.625,8.531 a 0.746312,0.746312 0 0 1 -1.125,0.06 l -3.438,-3.343 c 1.91,3.768 3.842,8.839 0.563,16.187 a 0.746312,0.746312 0 0 1 -0.594,0.438 c -1.778,0.206 -3.368,-0.83 -4.844,-2.032 -0.08,-0.06 -0.143,-0.124 -0.219,-0.187 0.187,0.294 0.186,0.254 0.375,0.562 0.854,1.388 1.723,2.894 2.407,4.313 0.666,1.382 1.158,2.674 1.281,3.781 0.653,-1.133 1.428,-2.156 2.281,-2.875 1.667,-1.404 4.394,-2.168 6.781,-2.687 0.235,-0.05 0.212,-0.02 0.438,-0.06 l -4.063,-0.844 a 0.746312,0.746312 0 0 1 -0.593,-0.75 c 0.135,-2.771 0.909,-4.806 2.093,-6.281 1.185,-1.475 2.752,-2.379 4.375,-2.969 1.92,-0.697 3.817,-1.085 5.532,-1.468 l -7.25,-0.969 a 0.746312,0.746312 0 0 1 -0.625,-0.531 c -0.518,-1.752 -0.177,-3.294 0.687,-4.407 0.864,-1.112 2.151,-1.829 3.563,-2.406 1.403,-0.572 2.958,-1.003 4.343,-1.406 l -4.656,-0.219 a 0.746312,0.746312 0 0 1 -0.562,-1.219 z"
           id="path37" />
      </g>
    </g>
    <g
       id="a"
       stroke-dasharray="none"
       stroke-miterlimit="4"
       stroke-width="1"
       transform="translate(-170.52907 -114.21559) scale(1.13819)">
      <g
         transform="rotate(-16.778 1156.9501696 840.13131325)"
         id="g5">
        <path
           fill="#d1b948"
           stroke="#806600"
           d="M1163.0676 803.27759v48.6683h.9508c-.065-2.45855 1.6752-11.6277 4.1722-11.58492 2.1425.25412 4.2473 2.28546 6.5007 2.55701l-.8926-4.88563c-.1459-.54144.056-1.14248.4657-1.4748l10.343-8.79057-2.1346-1.04788c-.9428-.35222-.6678-.89615-.3299-2.2316l1.5525-5.99622-5.9963 1.30016c-.5871.0928-.9972-.2887-1.0867-.65978l-.7567-2.83317-4.7543 5.5693c-.6762.89026-2.0375.89463-1.6107-1.16431l2.0181-11.27444-2.7167 1.4748c-.7649.44541-1.533.52573-1.9599-.27167z"
           id="path1" />
        <path
           fill="#e5c947"
           d="M1165.0322 843.47509c.5962-1.14448 1.2898-2.22185 2.2381-3.12319 1.7668-.4691 3.2126.80939 4.8061 1.28467-.1705-1.49528-1.3856-3.48361-.5111-4.48583l9.2947-8.61291c-.9218-.27482-2.1163-.19041-1.5255-2.45774l.8744-4.50676-4.4381.90973c-.8953.16159-1.1581-1.21223-1.4348-2.55269l-3.1006 3.97878c-1.0904 1.21597-3.901 1.51838-3.4212-1.25883l1.3909-8.96135-2.8889 1.86924-2.9232-7.25776-.5595 35.86323z"
           id="path2" />
        <path
           fill="#e7cd53"
           d="m1178.3551 824.22635-9.5939 14.08628c-.4698.79195-2.8729 1.08367-3.394 4.83075l-1.7607.81134-.5567-34.2424 3.6842 23.08589 11.3054-8.97883c.321-.32021.5624-.0188.3157.40697z"
           id="path3" />
        <path
           fill="#f6e078"
           d="M1163.0676 811.54421v34.61892l1.339-.36869.9896-6.38433 12.9627-15.58239-12.9044 12.07005z"
           id="path4" />
        <path
           fill="none"
           stroke="#806600"
           stroke-width=".99983543"
           d="M1163.0676 803.27759v48.6683h.9508c-.065-2.45855 1.6752-11.6277 4.1722-11.58492 2.1425.25412 4.2473 2.28546 6.5007 2.55701l-.8926-4.88563c-.1459-.54144.056-1.14248.4657-1.4748l10.343-8.79057-2.1346-1.04788c-.9428-.35222-.6678-.89615-.3299-2.2316l1.5525-5.99622-5.9963 1.30016c-.5871.0928-.9972-.2887-1.0867-.65978l-.7567-2.83317-4.7543 5.5693c-.6762.89026-2.0375.89463-1.6107-1.16431l2.0181-11.27444-2.7167 1.4748c-.7649.44541-1.533.52573-1.9599-.27167z"
           id="path5" />
      </g>
      <g
         stroke="#9c6000"
         stroke-width="1.18820715"
         transform="matrix(-.67275 -.27814 -.24805 .71069 1568.7042 756.13237)"
         id="g9">
        <path
           fill="#d1b948"
           stroke="#806608"
           stroke-width="1.3517394"
           d="M451.314007 307.9381c-3.99408-2.04059-5.0773-16.09054-5.73636-21.89068-.45895-4.03906-3.54584-5.79816-4.48936-9.79497-.48447-2.05223-1.49103-4.83488 0-6.32591.67337-.67337 2.33656-.82405 3.26498-.61218 1.98726.4535 4.08124 2.04061 4.08124 2.04061s-1.68646-4.97991-1.83655-8.16247c-.12067-2.55856.12373-5.64729 2.04061-7.34622 1.53053-1.35651 2.88119-1.56005 4.69343-.61219 1.05436.55147 1.83655 2.04062 1.83655 2.04062s.52002-5.45244 1.83656-8.36654c1.17254-2.59536 2.46021-5.42595 5.30561-5.3056 1.44164.061 2.37136 1.79342 3.06092 3.06092.93083 1.71101.40812 4.2853.40812 4.2853s2.05609-5.66343 4.89749-7.34622c2.75635-1.63243 6.43843-3.00812 8.77466-.81625 1.43858 1.34968.76735 3.28432 0 5.10155-1.36597 3.2349-6.32592 7.34622-6.32592 7.34622s3.3262-.65209 4.89748-.20406c1.97761.56389 4.56172 1.48474 5.10155 3.46905.3754 1.3799-.43114 3.61292-1.83656 3.87717-3.65954.68807-10.37018 1.83176-9.38684 3.06093 0 0 3.10875.006 4.48936.81625 1.32983.78085 3.08929 1.92717 3.06093 3.46905-.0345 1.87611-.95786 4.52858-4.48937 5.30561-2.85686.62859-6.12185-.17368-9.5909 2.04062 0 0 4.32446.13989 5.71373 1.42843 1.0485.97247 2.14916 2.4817 1.83656 3.87717-.53878 2.40514-4.16849 3.50158-6.32592 4.69342-2.63592 1.45618-5.45568 1.18209-7.95841 2.85687-2.76539 1.85055-4.59302 4.84471-6.52997 7.55028-1.88111 2.62757-.79362 10.46322-.79362 10.46322z"
           id="path6" />
        <path
           fill="#e5c947"
           stroke="none"
           d="M477.03125 243.5625c-.41679-.0848-.90395-.0424-1.5.0625-1.19164.20969-2.60846.84365-3.875 1.59375-.79384.47014-2.01008 2.06556-2.8125 3.5625-.80242 1.49694-1.28125 2.8125-1.28125 2.8125a1.8903269 1.8903269 0 0 1-3.625-1.03125s.18989-2.24885-.21875-3c-.34699-.63781-.70642-1.29738-1.03125-1.6875-.32483-.39012-.48654-.407-.46875-.40625-.784-.0332-1.1205.2308-1.71875.96875s-1.19603 1.95464-1.78125 3.25c-1.02972 2.27923-1.6875 7.78125-1.6875 7.78125a1.8903269 1.8903269 0 0 1-3.5625.65625s-.11166-.23987-.34375-.5625c-.23209-.32263-.59244-.62287-.65625-.65625-.6797-.3555-1.05285-.41516-1.34375-.375-.2909.0402-.65782.1939-1.25.71875-1.12394.99615-1.51811 3.47201-1.40625 5.84375.12294 2.60677 1.75 7.65625 1.75 7.65625a1.8903269 1.8903269 0 0 1-2.90625 2.09375s-2.03235-1.3811-3.375-1.6875c-.12486-.0285-.61705-.0616-1 0s-.65447.27947-.5.125c-.18142.18142-.31568.53169-.21875 1.40625.0969.87456.45294 1.99903.71875 3.125.40388 1.71085 1.11556 2.96005 1.96875 4.40625.85319 1.4462 1.83963 3.09654 2.46875 5.34375.9883 3.5302 1.36894 8.48265 1.5625 12.6875.019.41342-.0149.35461 0 .75.55711-.92312 1.1132-1.91011 1.625-2.625 1.88299-2.6302 3.77654-5.84292 7-8 1.56203-1.04528 3.18577-1.44735 4.5625-1.78125 1.37673-.3339 2.53619-.62053 3.5625-1.1875 1.25978-.69595 2.67694-1.25444 3.75-1.875s1.57243-1.18831 1.65625-1.5625c.0205-.0913.0123-.35991-.21875-.78125-.23107-.42134-.65182-.9316-1.0625-1.3125-.003-.003-1.27944-.54084-2.40625-.71875s-2.09375-.21875-2.09375-.21875a1.8903269 1.8903269 0 0 1-.96875-3.46875c4.09939-2.61665 7.99081-1.79104 10.21875-2.28125 1.3568-.29853 1.96098-.85431 2.375-1.46875.41402-.61444.61302-1.37979.625-2.03125.001-.0559-.0459-.24547-.4375-.625-.39156-.37953-1.06218-.82032-1.6875-1.1875-.15503-.091-1.15531-.37843-2-.46875-.84469-.0903-1.53125-.0937-1.53125-.0937a1.8903269 1.8903269 0 0 1-1.46875-.6875c-.49462-.61827-.57437-2.00308-.15625-2.65625.41812-.65317.86718-.87345 1.28125-1.09375.82814-.44059 1.74555-.7207 2.8125-1 2.13389-.55861 4.7514-1.00323 6.5625-1.34375-.18149.0341.0122-.0348.1875-.4375.17525-.40267.21666-.98656.1875-1.09375-.0894-.32866-.40719-.71422-1.125-1.125-.71781-.41078-1.75138-.76433-2.6875-1.03125-.21989-.0627-1.37348-.0938-2.3125 0s-1.71875.21875-1.71875.21875a1.8903269 1.8903269 0 0 1-1.5625-3.3125s1.16378-.95331 2.5-2.3125 2.80476-3.18408 3.28125-4.3125c.36738-.87001.64018-1.66133.6875-2.15625.0473-.49492.0663-.54512-.21875-.8125-.3347-.31402-.70821-.50899-1.125-.59375z"
           id="path7" />
        <path
           fill="#dac049"
           stroke="none"
           d="M497.95876 922.26583c-.12369.006-3.39162 2.84647-3.49001 2.92167l-9.84375 7.375-1.21875-4.59375c-.13274-.46309-.19468-3.34433-.42583-2.92167-1.40596 2.63654-1.57853 7.78177-1.38667 10.04667.17926 2.11621.0689 4.24035-1.9375 7l-6-5.84375c-.39488-.38844-1.31574-1.84157-1.11653-1.32473 1.79496 4.39161 6.66813 11.18023 2.71028 20.51223-1.06192-.0201-2.24226-.63199-3.5-1.65625-1.38588-1.12862-2.79059-2.62265-4.28125-3.71875-2.46442-2.22403-2.95333-1.90209-.875.84375 0 0 1.63581 2.27397 3.3125 5 .83835 1.36302 1.69116 2.83369 2.34375 4.1875.65259 1.35381 1.11413 2.61932 1.1875 3.40625.11185 1.19961-.3275 3.21153-.8125 4.875-.485 1.66347-1 3-1 3l.19535 7.4318.9609-7.0568s.56391-1.978 1.5-4.28125c.93609-2.30325 2.29834-4.91344 3.625-6.03125 1.25432-1.05685 3.91216-1.905 6.21875-2.40625s4.25-.71875 4.25-.71875c.53419-.10036 3.03029-.79856 2.50959-.95444l-9.79084-1.73306c.19271-2.24268.78111-3.86794 1.6875-5 .98213-1.22665 2.27521-1.99414 3.75-2.53125 2.94959-1.07422 6.48969-1.11936 8.84375-2.5.42164-.25863 2.13353-.34404 1.6457-.42583L485 943.09375c-.2715-1.21334-.096-2.08506.46875-2.8125.6238-.80354 1.69554-1.46759 3-2 2.60892-1.06482 5.96366-1.57275 7.90625-2.6875.48464-.24865 3.29318-1.15798 2.74848-1.15625l-10.18598-.34375 6.375-8.03125c.2986-.36291 3.11576-3.8178 2.64626-3.79667z"
           transform="translate(-22.131983 -675.74982)"
           id="path8" />
        <path
           fill="#d1b948"
           stroke="none"
           d="m468.5 254-5.96875 4.46875a.74631244.74631244 0 0 1-1.15625-.40625l-.71875-2.84375c-.11562 1.27338.0639 2.54143.1875 4 .20248 2.39027.0317 5.21747-2.625 8.53125a.74631244.74631244 0 0 1-1.125.0625l-3.4375-3.34375c1.91019 3.76818 3.8421 8.83972.5625 16.1875a.74631244.74631244 0 0 1-.59375.4375c-1.77766.20607-3.36791-.82937-4.84375-2.03125-.0758-.0618-.14318-.12448-.21875-.1875.18634.29412.18529.25406.375.5625.85371 1.38799 1.72204 2.89309 2.40625 4.3125.66614 1.38193 1.15805 2.67421 1.28125 3.78125.65337-1.13349 1.42802-2.15609 2.28125-2.875 1.6663-1.40398 4.39351-2.16862 6.78125-2.6875.2344-.0509.21175-.0174.4375-.0625l-4.0625-.84375a.74631244.74631244 0 0 1-.59375-.75c.13515-2.77152.90968-4.80641 2.09375-6.28125 1.18407-1.47484 2.75183-2.3791 4.375-2.96875 1.91931-.69723 3.81681-1.08595 5.53125-1.46875l-7.25-.96875a.74631244.74631244 0 0 1-.625-.53125c-.5174-1.75131-.1763-3.29356.6875-4.40625.8638-1.11269 2.15037-1.8299 3.5625-2.40625 1.40299-.57262 2.95799-1.00332 4.34375-1.40625l-4.65625-.21875a.74631244.74631244 0 0 1-.5625-1.21875L468.5 254z"
           id="path9" />
      </g>
    </g>
    <g
       transform="translate(-89.548593 -59.453364) scale(1.07257)"
       id="g14">
      <path
         fill="#d1b948"
         stroke="#806600"
         stroke-width=".88036394"
         d="m1234.029 779.36692-5.3097 10.42681c-.6053 1.1305-1.6942 1.01663-2.7787.38516l-3.8516-2.09087 2.8612 15.98411c.6052 2.91902-1.3249 2.91283-2.2834 1.65068l-6.7403-7.89576-1.073 4.01666c-.1267.52609-.7082 1.06695-1.5406.93539l-8.501-1.84327 2.2009 8.50102c.4792 1.89331.869 2.66445-.4677 3.16381l-3.0262 1.48561 14.6635 12.46265c.5806.47114.8671 1.32326.6603 2.09087l-1.2655 6.71612c3.1946-.38499 6.1788-3.05449 9.2163-3.41476 3.54-.0607 6.0067 12.93873 5.9149 16.42429h2.6686c-.092-3.48556 2.3749-16.48494 5.915-16.42429 3.0375.36027 6.0216 3.24016 9.2163 3.62515l-1.2655-6.92651c-.2068-.76761.08-1.61973.6602-2.09087l14.6636-12.46265-3.0263-1.48561c-1.3366-.49936-.9468-1.2705-.4677-3.16381l2.201-8.50102-8.5011 1.84327c-.8323.13156-1.4138-.4093-1.5406-.93539l-1.0729-4.01666-6.7403 7.89576c-.9586 1.26215-2.8886 1.26834-2.2835-1.65068l2.8612-15.98411-3.8516 2.09087c-1.0844.63147-2.1734.74534-2.7786-.38516z"
         id="path10" />
      <path
         fill="#e5c947"
         d="m1234.0271 783.37128-4.75 10.9375-4.5-2.75 1.96875 13.40625c.68498 4.150092-3.724711 3.765859-5.40625 1.96875l-4.75-5.90625c-.466743 2.014713-.910984 4.096778-2.3125 3.875l-6.9375-1.28125 1.25 6.75c.871586 3.38368-1.01527 3.28611-2.46875 3.71875l14.375 12.6875c1.348071 1.48173-.602352 4.47458-.90625 6.71875 2.512282-.74826 4.83248-2.69392 7.59375-2.03125 1.46634 1.32895 2.52955 2.92379 3.4375 4.625l3.40625 1 3.4375-1c.9079-1.70121 1.9712-3.29605 3.4375-4.625 2.7612-.66267 5.08145 1.28299 7.59375 2.03125-.3039-2.24417-2.25435-5.23702-.90625-6.71875l14.375-12.6875c-1.4536-.43264-3.34025-.33507-2.46875-3.71875l1.25-6.75-6.9375 1.28125c-1.4015.22178-1.8458-1.86029-2.3125-3.875l-4.75 5.90625c-1.6815 1.79711-6.09115 2.18134-5.40625-1.96875l1.96875-13.40625-4.5 2.75-4.78125-10.9375z"
         id="path11" />
      <path
         fill="#e7cd53"
         d="m1234.0271 786.15253-4.8125 34.9375-17.53125-13.96875c-.497599-.497599-.881858-.0051-.5.65625l14.875 21.875c.72799 1.23 4.44757 1.68298 5.25 7.5l2.71875 1.25 2.75-1.25c.8024-5.81702 4.522-6.27 5.25-7.5l14.875-21.875c.382-.66138-.002-1.15385-.5-.65625l-17.53125 13.96875-4.84375-34.9375z"
         id="path12" />
      <path
         fill="none"
         stroke="#806600"
         stroke-width=".88036394"
         d="m1234.029 779.36692-5.3097 10.42681c-.6053 1.1305-1.6942 1.01663-2.7787.38516l-3.8516-2.09087 2.8612 15.98411c.6052 2.91902-1.3249 2.91283-2.2834 1.65068l-6.7403-7.89576-1.073 4.01666c-.1267.52609-.7082 1.06695-1.5406.93539l-8.501-1.84327 2.2009 8.50102c.4792 1.89331.869 2.66445-.4677 3.16381l-3.0262 1.48561 14.6635 12.46265c.5806.47114.8671 1.32326.6603 2.09087l-1.2655 6.71612c3.1946-.38499 6.1788-3.05449 9.2163-3.41476 3.54-.0607 6.0067 12.93873 5.9149 16.42429h2.6686c-.092-3.48556 2.3749-16.48494 5.915-16.42429 3.0375.36027 6.0216 3.24016 9.2163 3.62515l-1.2655-6.92651c-.2068-.76761.08-1.61973.6602-2.09087l14.6636-12.46265-3.0263-1.48561c-1.3366-.49936-.9468-1.2705-.4677-3.16381l2.201-8.50102-8.5011 1.84327c-.8323.13156-1.4138-.4093-1.5406-.93539l-1.0729-4.01666-6.7403 7.89576c-.9586 1.26215-2.8886 1.26834-2.2835-1.65068l2.8612-15.98411-3.8516 2.09087c-1.0844.63147-2.1734.74534-2.7786-.38516z"
         id="path13" />
      <path
         fill="#f6e078"
         d="m1234.029 791.08676-3.3564 34.52678-18.2951-17.11208 18.3776 22.09163 1.4031 9.05125 1.8708.52271 1.8983-.52271 1.403-9.05125 18.3776-22.09163-18.295 17.11208z"
         id="path14" />
    </g>
    <g
       transform="matrix(.82796 0 0 .99827 212.3064 5.1390602)"
       id="g28">
      <g
         stroke-width="1.1691345"
         transform="translate(808.97022 541.90867) scale(.85533)"
         id="g22">
        <path
           fill="#d1b948"
           fill-rule="evenodd"
           d="M390.38814 381.07914s12.05564-.88424 33.29743-2.08342c21.24179-1.19917 43.99979-1.82891 55.6089-1.82891h35.38749c11.24508 0 34.53839.62974 55.6089 1.82891 21.07057 1.19918 33.05521 2.20453 33.05521 2.20453l7.38763-33.00505s-75.69995-6.83087-113.74548-6.83086c-38.04553.00001-113.74549 6.83091-113.74549 6.83091l7.14541 32.88389z"
           id="path15" />
        <path
           fill="#ddc643"
           fill-rule="evenodd"
           d="m482.92007 341.44119 29.64102.14614.0643 35.39636h-28.10666l-1.59866-35.5425z"
           overflow="visible"
           style="marker:none"
           id="path16" />
        <path
           fill="#e7cd54"
           fill-rule="evenodd"
           d="m399.02267 346.47444 85.62826-5.28023-.0547 34.19488-83.53498 3.88068-2.03858-32.79533z"
           overflow="visible"
           style="marker:none"
           id="path17" />
        <path
           fill="#f6e078"
           fill-rule="evenodd"
           d="m405.94279 345.53224 57.768-3.85336 1.52874 34.63711-57.25837 2.67563-2.03837-33.45938z"
           overflow="visible"
           style="marker:none"
           id="path18" />
        <path
           fill="#f8eca8"
           fill-rule="evenodd"
           d="m413.78562 344.76637 32.90308-2.11815 1.52874 34.7005-16.19673.58798-16.19672.58798-2.03837-33.75831z"
           overflow="visible"
           style="marker:none"
           id="path19" />
        <path
           fill="#d1b948"
           fill-rule="evenodd"
           d="M478.97038 373.00052c-11.72282 0-34.47682.62611-55.78271 1.82891-13.3447.76851-20.74082 2.04968-34.04378 3.35538l1.3309 2.80633c13.38906-1.21911 19.65678-1.41812 33.07621-2.22621 21.17784-1.19556 43.924-1.82892 55.41938-1.82892h35.38748c11.1277 0 34.43324.63364 55.4351 1.82892 20.93691 1.19156 33.69762 2.34732 33.69762 2.34732l.64144-2.65726s-12.7715-2.41878-33.97573-3.62556c-21.13902-1.20308-44.43596-1.82891-55.79843-1.82891h-35.38748z"
           id="path20" />
        <path
           fill="#d0b500"
           fill-rule="evenodd"
           d="M423.18772 344.45634c-21.37622 1.20677-39.86385 3.64619-39.86385 3.64619l1.33719 5.83735s17.78206-2.31744 38.88943-3.50903c21.17784-1.19556 43.92396-1.67101 55.41933-1.67101h35.38748c11.12775 0 34.78405.72957 55.78602 1.92484 20.9368 1.19157 39.16003 3.2552 39.15998 3.2552l1.01629-5.83735s-18.95957-2.4394-40.1638-3.64619c-21.13907-1.20308-44.43597-2.68633-55.79849-2.68633h-35.38748c-18.6322.32121-37.2096 1.6156-55.78215 2.68633h.00005z"
           id="path21" />
        <path
           fill="none"
           stroke="#806600"
           stroke-width="1.46369207"
           d="M496.50058 341.72544c38.01199-.0193 76.02023 2.041 113.8632 6.23428l-6.92787 33.31224c-37.64029-3.37881-68.45072-4.28271-106.50894-4.58075m.5045-34.96577c-38.01198-.0193-76.02022 2.041-113.8632 6.23428l6.92787 33.31225c37.6403-3.37882 68.45072-4.28271 106.50894-4.58076"
           id="path22" />
      </g>
      <g
         stroke-width="1.32175255"
         color="#000"
         font-family="Bitstream Vera Sans"
         font-weight="400"
         transform="matrix(.8648 0 0 .66189 1728.2715 463.05627)"
         id="g24">
        <path
           id="use22"
           fill="#f6e078"
           d="m -644.322,561.769 -0.03,0.03 h -0.03 c -13.369,1.257 -28.842,2.628 -42.343,5.031 -1.91,2.982 -2.068,5.701 1.406,7.875 12.963,-2.307 28.246,-3.711 41.625,-4.969 18.145,-1.374 36.44,-2.233 54.687,-2.468 h 35 c 10.916,0 33.969,0.87 54.688,2.5 20.625,1.622 41.687,4.937 41.687,4.937 3.595,-2.398 3.204,-5.081 1.25,-7.875 0,0 -21.257,-3.406 -42.312,-5.062 -20.961,-1.649 -43.984,-2.5 -55.313,-2.5 h -35 c -18.464,0.07 -36.9,1.209 -55.312,2.5 z"
           overflow="visible"
           style="line-height:normal;-inkscape-font-specification:'Bitstream Vera Sans';text-indent:0;text-align:start;text-transform:none;marker:none" />
        <path
           id="use23"
           fill="#f8eca8"
           d="m -454.929,569.956 c 0.107,-1.319 -0.479,-1.728 -1.456,-3.125 0,0 -21.257,-3.406 -42.312,-5.062 -20.961,-1.649 -43.984,-2.5 -55.313,-2.5 h -35 c -18.464,0.07 -36.9,1.209 -55.312,2.5 l -0.03,0.03 h -0.03 c -13.369,1.257 -28.842,2.628 -42.343,5.031 -0.955,1.491 -1.472,1.635 -1.316,2.959 15.614,-1.897 28.807,-4.05 43.915,-5.231 23.981,-1.875 49.508,-2.236 72.357,-2.329 22.783,-0.09 45.047,0.693 66.878,2.344 16.901,1.278 33.542,3.074 49.965,5.382 z"
           overflow="visible"
           style="line-height:normal;-inkscape-font-specification:'Bitstream Vera Sans';text-indent:0;text-align:start;text-transform:none;marker:none" />
        <path
           id="use24"
           fill="#d1b948"
           d="m -687.275,572.979 c 0.444,0.607 1.085,1.184 1.953,1.727 12.963,-2.307 28.246,-3.711 41.625,-4.969 18.145,-1.374 36.44,-2.233 54.687,-2.468 h 35 c 10.916,0 33.969,0.87 54.688,2.5 20.625,1.622 41.687,4.937 41.687,4.937 1.128,-0.752 1.453,-1.191 1.871,-1.993 -39.888,-7.114 -76.13,-7.826 -114.389,-8.18 -37.267,-0.346 -79.256,1.897 -117.122,8.446 z"
           overflow="visible"
           style="line-height:normal;-inkscape-font-specification:'Bitstream Vera Sans';text-indent:0;text-align:start;text-transform:none;marker:none" />
        <path
           fill="none"
           stroke="#806600"
           stroke-width="1.65476143"
           d="m-644.32223 561.76862-.0312.0312h-.0312c-13.36934 1.25678-28.84217 2.62778-42.34375 5.03125-1.90913 2.98168-2.06747 5.70075 1.40625 7.875 12.96265-2.30753 28.24596-3.71121 41.625-4.96875 18.14491-1.37417 36.43964-2.23317 54.6875-2.4688h35c10.91556 0 33.96831.8703 54.6875 2.5 20.62477 1.62227 41.6875 4.9375 41.6875 4.9375 3.59435-2.39802 3.20392-5.08067 1.25-7.875 0 0-21.25757-3.40639-42.3125-5.0625-20.96041-1.64868-43.98416-2.5-55.3125-2.5h-35c-18.46448.0721-36.90054 1.20996-55.3126 2.5001z"
           overflow="visible"
           style="text-indent:0;text-align:start;line-height:normal;text-transform:none;block-progression:tb;marker:none;-inkscape-font-specification:Bitstream Vera Sans"
           id="path24" />
      </g>
      <g
         stroke-width="1.37072647"
         color="#000"
         font-family="Bitstream Vera Sans"
         font-weight="400"
         transform="matrix(.80411 0 0 .66189 1693.5863 492.46961)"
         id="g27">
        <path
           id="use25"
           fill="#f6e078"
           d="m -644.322,561.769 -0.03,0.03 h -0.03 c -13.369,1.257 -28.842,2.628 -42.343,5.031 -1.91,2.982 -2.068,5.701 1.406,7.875 12.963,-2.307 28.246,-3.711 41.625,-4.969 18.145,-1.374 36.44,-2.233 54.687,-2.468 h 35 c 10.916,0 33.969,0.87 54.688,2.5 20.625,1.622 41.687,4.937 41.687,4.937 3.595,-2.398 3.204,-5.081 1.25,-7.875 0,0 -21.257,-3.406 -42.312,-5.062 -20.961,-1.649 -43.984,-2.5 -55.313,-2.5 h -35 c -18.464,0.07 -36.9,1.209 -55.312,2.5 z"
           overflow="visible"
           style="line-height:normal;-inkscape-font-specification:'Bitstream Vera Sans';text-indent:0;text-align:start;text-transform:none;marker:none" />
        <path
           id="use26"
           fill="#f8eca8"
           d="m -454.929,569.956 c 0.107,-1.319 -0.479,-1.728 -1.456,-3.125 0,0 -21.257,-3.406 -42.312,-5.062 -20.961,-1.649 -43.984,-2.5 -55.313,-2.5 h -35 c -18.464,0.07 -36.9,1.209 -55.312,2.5 l -0.03,0.03 h -0.03 c -13.369,1.257 -28.842,2.628 -42.343,5.031 -0.955,1.491 -1.472,1.635 -1.316,2.959 15.614,-1.897 28.807,-4.05 43.915,-5.231 23.981,-1.875 49.508,-2.236 72.357,-2.329 22.783,-0.09 45.047,0.693 66.878,2.344 16.901,1.278 33.542,3.074 49.965,5.382 z"
           overflow="visible"
           style="line-height:normal;-inkscape-font-specification:'Bitstream Vera Sans';text-indent:0;text-align:start;text-transform:none;marker:none" />
        <path
           id="use27"
           fill="#d1b948"
           d="m -687.275,572.979 c 0.444,0.607 1.085,1.184 1.953,1.727 12.963,-2.307 28.246,-3.711 41.625,-4.969 18.145,-1.374 36.44,-2.233 54.687,-2.468 h 35 c 10.916,0 33.969,0.87 54.688,2.5 20.625,1.622 41.687,4.937 41.687,4.937 1.128,-0.752 1.453,-1.191 1.871,-1.993 -39.888,-7.114 -76.13,-7.826 -114.389,-8.18 -37.267,-0.346 -79.256,1.897 -117.122,8.446 z"
           overflow="visible"
           style="line-height:normal;-inkscape-font-specification:'Bitstream Vera Sans';text-indent:0;text-align:start;text-transform:none;marker:none" />
        <path
           fill="none"
           stroke="#806600"
           stroke-width="1.71607399"
           d="m-644.32223 561.76862-.0312.0312h-.0312c-13.36934 1.25678-28.84217 2.62778-42.34375 5.03125-1.90913 2.98168-2.06747 5.70075 1.40625 7.875 12.96265-2.30753 28.24596-3.71121 41.625-4.96875 18.14491-1.37417 36.43964-1.77813 54.6875-2.01376h35c10.91556 0 33.96831.41526 54.6875 2.04496 20.62477 1.62227 41.6875 4.9375 41.6875 4.9375 3.59435-2.39802 3.20392-5.08067 1.25-7.875 0 0-21.25757-3.40639-42.3125-5.0625-20.96041-1.64868-43.98416-2.04496-55.3125-2.04496h-35c-18.46448.0721-36.90054.75492-55.3126 2.04506z"
           overflow="visible"
           style="text-indent:0;text-align:start;line-height:normal;text-transform:none;block-progression:tb;marker:none;-inkscape-font-specification:Bitstream Vera Sans"
           id="path27" />
      </g>
    </g>
  </g>
</svg>
